<?xml version="1.0" encoding="utf-8"?>
<!-- Generator: Adobe Illustrator 23.0.0, SVG Export Plug-In . SVG Version: 6.00 Build 0)  -->
<svg version="1.1" id="Layer_2" xmlns="http://www.w3.org/2000/svg" xmlns:xlink="http://www.w3.org/1999/xlink" x="0px" y="0px"
	 viewBox="0 0 290.92 142.86" style="enable-background:new 0 0 290.92 142.86;" xml:space="preserve">
<style type="text/css">
	.st0{fill:#007A9D;}
	.st1{fill:#1D3260;}
	.st2{fill:#E1DAD0;}
</style>
<g>
	<g>
		<path class="st0" d="M1.72,19.8c0,0-6.47,7.84,5.69,25.39c14.58,21.05,70.93,94.44,151.35,97.61
			c80.42,3.17,164-102.84,120.01-136.56C246.2-18.73,170.87,39.57,131.1,36.9C66.11,32.54,7.89,8.68,1.72,19.8z"/>
	</g>
	<g>
		<polygon class="st1" points="76.26,49.85 77.06,57.24 77.89,49.85 82.3,53.82 78.19,49.34 82.04,48.58 78.19,47.85 82.3,43.38 
			77.89,47.38 77.06,39.95 76.26,47.38 71.85,43.38 75.93,47.85 72.07,48.58 75.93,49.34 71.85,53.82 		"/>
	</g>
	<g>
		<g>
			<path class="st1" d="M47.65,116.75c-1.59,0-3.14-0.35-4.6-1.05c-1.45-0.69-2.75-1.62-3.84-2.76c-1.09-1.13-1.97-2.46-2.62-3.94
				c-0.65-1.49-0.98-3.05-0.98-4.63c0-0.81,0.1-1.66,0.3-2.53c0.2-0.87,0.53-1.68,0.97-2.4c0.45-0.73,1.03-1.33,1.73-1.79
				c0.71-0.47,1.59-0.71,2.61-0.71c1.34,0,2.5,0.43,3.43,1.27c0.91,0.83,1.56,1.84,1.91,3.02l0.01,0.39c0,0.34-0.12,0.63-0.37,0.88
				c-0.25,0.25-0.54,0.37-0.88,0.37c-0.32,0-0.76-0.12-1.06-0.7c-0.18-0.35-0.39-0.74-0.61-1.16c-0.21-0.39-0.5-0.75-0.86-1.08
				c-0.33-0.3-0.86-0.45-1.57-0.45c-0.58,0-1.05,0.15-1.43,0.46c-0.4,0.32-0.72,0.73-0.95,1.21c-0.24,0.5-0.42,1.04-0.52,1.61
				c-0.11,0.58-0.16,1.13-0.16,1.62c0,1.22,0.26,2.44,0.78,3.62c0.52,1.19,1.23,2.25,2.12,3.17c0.89,0.92,1.92,1.66,3.07,2.22
				c1.14,0.56,2.33,0.84,3.55,0.84c2.29,0,4.06-0.68,5.25-2.03c1.2-1.36,1.81-3.21,1.81-5.49c0-1.84-0.36-3.75-1.06-5.67
				c-0.71-1.94-1.67-3.94-2.83-5.94c-1.17-2-2.51-4.07-4.01-6.16c-1.5-2.09-3.03-4.21-4.61-6.37c-1.57-2.14-3.12-4.35-4.62-6.57
				c-1.5-2.21-2.86-4.49-4.04-6.76c-1.19-2.27-2.16-4.61-2.88-6.96c-0.73-2.35-1.09-4.75-1.09-7.14c0-2.73,0.46-5.43,1.37-8
				c0.91-2.58,2.32-4.92,4.17-6.95c0.71-0.8,1.51-1.55,2.36-2.24c0.86-0.68,1.78-1.29,2.74-1.79c0.96-0.5,1.99-0.9,3.05-1.19
				c1.07-0.29,2.16-0.43,3.26-0.43c2.04,0,3.99,0.39,5.8,1.17c1.61,0.69,3.03,1.69,4.23,2.99l0.33-2.45
				c0.08-0.43,0.27-0.71,0.58-0.86c0.25-0.12,0.54-0.18,0.87-0.18c0.36,0,0.66,0.17,0.88,0.5c0.2,0.32,0.27,0.63,0.19,0.95
				L57.4,50.94c-0.08,0.43-0.26,0.71-0.55,0.85c-0.24,0.12-0.54,0.18-0.9,0.18c-0.36,0-0.67-0.17-0.88-0.5
				c-0.2-0.31-0.27-0.65-0.19-1.02l1.19-8.16c-0.84-0.5-1.67-0.97-2.5-1.44c-0.84-0.46-1.78-0.7-2.79-0.7
				c-0.61,0-1.32,0.12-2.11,0.35c-0.81,0.24-1.49,0.47-2.05,0.69c-1.47,0.65-2.74,1.5-3.77,2.51c-1.03,1.02-1.88,2.19-2.52,3.47
				c-0.65,1.29-1.12,2.7-1.39,4.17c-0.28,1.48-0.42,3.04-0.42,4.62c0,3.51,0.47,6.81,1.38,9.82c0.92,3.02,2.1,5.92,3.49,8.61
				c1.4,2.7,2.93,5.32,4.56,7.79c1.63,2.47,3.17,4.98,4.58,7.45c1.41,2.48,2.6,5.02,3.54,7.56c0.94,2.56,1.42,5.31,1.42,8.15
				c0,1.54-0.18,3.02-0.54,4.4c-0.36,1.39-0.95,2.62-1.75,3.65c-0.8,1.04-1.84,1.86-3.08,2.46
				C50.89,116.45,49.38,116.75,47.65,116.75z"/>
			<path class="st1" d="M46.5,34.84c2,0,3.9,0.38,5.67,1.14c1.78,0.76,3.3,1.91,4.57,3.43l0.42-3.13c0.06-0.31,0.19-0.52,0.4-0.61
				c0.21-0.1,0.46-0.15,0.74-0.15c0.25,0,0.46,0.12,0.61,0.36c0.15,0.24,0.2,0.47,0.15,0.7l-1.99,14.31
				c-0.06,0.31-0.18,0.52-0.38,0.61c-0.2,0.1-0.45,0.15-0.76,0.15c-0.25,0-0.46-0.12-0.61-0.36c-0.16-0.24-0.2-0.5-0.15-0.78
				l1.23-8.38c-0.9-0.54-1.8-1.05-2.69-1.55c-0.89-0.49-1.87-0.74-2.94-0.74c-0.65,0-1.38,0.12-2.2,0.36
				c-0.82,0.24-1.51,0.47-2.07,0.7c-1.52,0.68-2.82,1.54-3.87,2.58c-1.06,1.04-1.92,2.23-2.58,3.56c-0.66,1.33-1.14,2.75-1.42,4.26
				c-0.28,1.51-0.42,3.07-0.42,4.68c0,3.56,0.47,6.86,1.4,9.91c0.93,3.05,2.1,5.94,3.51,8.66c1.41,2.72,2.94,5.33,4.57,7.81
				c1.64,2.48,3.16,4.96,4.57,7.43c1.41,2.47,2.58,4.98,3.51,7.52c0.93,2.54,1.4,5.22,1.4,8.05c0,1.52-0.18,2.96-0.53,4.32
				c-0.35,1.36-0.92,2.53-1.69,3.54c-0.78,1-1.76,1.79-2.96,2.37c-1.2,0.58-2.65,0.87-4.34,0.87c-1.55,0-3.04-0.34-4.47-1.02
				c-1.43-0.68-2.68-1.57-3.75-2.69c-1.07-1.11-1.93-2.4-2.56-3.85c-0.63-1.45-0.95-2.96-0.95-4.51c0-0.79,0.1-1.61,0.3-2.46
				c0.2-0.85,0.51-1.62,0.93-2.31c0.42-0.69,0.97-1.26,1.63-1.69c0.66-0.44,1.47-0.66,2.43-0.66c1.27,0,2.34,0.4,3.22,1.19
				c0.87,0.79,1.48,1.75,1.82,2.88v0.3c0,0.25-0.09,0.47-0.27,0.66c-0.18,0.18-0.4,0.27-0.66,0.27c-0.34,0-0.6-0.18-0.78-0.53
				c-0.18-0.35-0.39-0.74-0.61-1.16c-0.23-0.42-0.54-0.81-0.93-1.16c-0.4-0.35-0.99-0.53-1.78-0.53c-0.65,0-1.19,0.18-1.63,0.53
				c-0.44,0.35-0.78,0.79-1.04,1.31c-0.25,0.52-0.44,1.09-0.55,1.69c-0.11,0.61-0.17,1.16-0.17,1.67c0,1.27,0.27,2.52,0.8,3.75
				c0.54,1.23,1.26,2.31,2.18,3.26c0.92,0.95,1.97,1.71,3.15,2.29c1.19,0.58,2.41,0.87,3.68,0.87c2.4,0,4.23-0.71,5.48-2.14
				c1.26-1.42,1.88-3.32,1.88-5.69c0-1.89-0.36-3.82-1.08-5.78c-0.72-1.96-1.67-3.96-2.86-5.99c-1.19-2.03-2.53-4.09-4.02-6.18
				c-1.5-2.09-3.03-4.21-4.62-6.37c-1.58-2.16-3.12-4.35-4.62-6.56c-1.5-2.22-2.84-4.46-4.02-6.73c-1.19-2.27-2.14-4.57-2.86-6.9
				c-0.72-2.33-1.08-4.68-1.08-7.05c0-2.71,0.45-5.34,1.35-7.9c0.9-2.55,2.27-4.83,4.11-6.84c0.71-0.79,1.48-1.52,2.33-2.2
				s1.74-1.26,2.69-1.76c0.95-0.49,1.94-0.88,2.99-1.16C44.37,34.99,45.43,34.84,46.5,34.84 M46.5,34.22
				c-1.12,0-2.25,0.15-3.34,0.45c-1.08,0.29-2.13,0.7-3.11,1.21c-0.98,0.51-1.92,1.13-2.79,1.82c-0.87,0.69-1.68,1.46-2.4,2.27
				c-1.88,2.05-3.3,4.43-4.23,7.05c-0.92,2.61-1.39,5.34-1.39,8.11c0,2.42,0.37,4.86,1.11,7.24c0.73,2.36,1.71,4.72,2.9,7.01
				c1.19,2.29,2.56,4.57,4.06,6.79c1.49,2.21,3.05,4.43,4.63,6.58c1.53,2.09,3.08,4.23,4.61,6.37c1.48,2.07,2.82,4.13,3.99,6.13
				c1.16,1.99,2.11,3.97,2.81,5.89c0.69,1.88,1.04,3.76,1.04,5.56c0,2.2-0.58,3.98-1.73,5.28c-1.14,1.3-2.78,1.93-5.01,1.93
				c-1.17,0-2.31-0.27-3.41-0.81c-1.12-0.54-2.12-1.27-2.98-2.16c-0.86-0.89-1.55-1.92-2.06-3.07c-0.5-1.14-0.75-2.32-0.75-3.5
				c0-0.47,0.05-0.99,0.16-1.56c0.1-0.55,0.27-1.06,0.5-1.53c0.21-0.44,0.5-0.8,0.87-1.1c0.33-0.26,0.73-0.39,1.24-0.39
				c0.63,0,1.08,0.12,1.36,0.37c0.34,0.3,0.6,0.64,0.8,0.99c0.22,0.42,0.43,0.81,0.61,1.16c0.29,0.56,0.77,0.87,1.34,0.87
				c0.42,0,0.8-0.16,1.1-0.46c0.3-0.3,0.46-0.68,0.46-1.1v-0.3v-0.09l-0.03-0.09c-0.37-1.24-1.04-2.3-2-3.17
				c-0.99-0.89-2.21-1.35-3.64-1.35c-1.08,0-2.02,0.26-2.78,0.76c-0.74,0.49-1.35,1.12-1.82,1.89c-0.46,0.75-0.8,1.59-1.01,2.49
				c-0.21,0.89-0.31,1.76-0.31,2.6c0,1.63,0.34,3.23,1,4.76c0.66,1.52,1.57,2.88,2.69,4.04c1.12,1.16,2.44,2.11,3.93,2.82
				c1.5,0.71,3.1,1.08,4.74,1.08c1.78,0,3.33-0.31,4.61-0.93c1.28-0.62,2.35-1.48,3.19-2.55c0.82-1.07,1.43-2.33,1.81-3.76
				c0.36-1.4,0.55-2.91,0.55-4.48c0-2.88-0.48-5.66-1.44-8.26c-0.94-2.56-2.14-5.12-3.56-7.61c-1.41-2.47-2.96-4.98-4.59-7.46
				c-1.62-2.45-3.15-5.06-4.54-7.76c-1.39-2.67-2.55-5.55-3.47-8.55c-0.91-2.97-1.37-6.25-1.37-9.72c0-1.56,0.14-3.1,0.41-4.56
				c0.27-1.45,0.73-2.82,1.36-4.09c0.63-1.26,1.46-2.4,2.46-3.39c1-0.99,2.24-1.81,3.69-2.46c0.52-0.21,1.19-0.43,2-0.67
				c0.76-0.22,1.44-0.33,2.02-0.33c0.96,0,1.85,0.22,2.64,0.66c0.75,0.42,1.52,0.86,2.31,1.32l-1.17,7.97
				c-0.08,0.41,0,0.84,0.24,1.22c0.27,0.42,0.67,0.65,1.14,0.65c0.41,0,0.76-0.07,1.04-0.22c0.26-0.13,0.6-0.42,0.72-1.06
				l1.99-14.31c0.06-0.27,0.06-0.69-0.24-1.15c-0.27-0.42-0.68-0.65-1.14-0.65c-0.37,0-0.71,0.07-1.01,0.21
				c-0.28,0.13-0.64,0.42-0.76,1.07l-0.25,1.84c-1.13-1.11-2.43-1.98-3.88-2.6C50.58,34.62,48.59,34.22,46.5,34.22L46.5,34.22z"/>
		</g>
		<g>
			<path class="st1" d="M77.69,98.02c-0.44,0-0.68-0.19-0.8-0.35c-0.19-0.24-0.31-0.54-0.34-0.88c-0.03-0.3-0.03-0.62,0-0.95
				c0.01-0.07,0.01-0.14,0.02-0.21c-0.35,0.17-0.75,0.33-1.19,0.49c-0.65,0.23-1.31,0.43-1.98,0.6c-0.67,0.17-1.35,0.3-2.01,0.39
				c-0.67,0.09-1.26,0.13-1.78,0.13c-0.97,0-2.12-0.07-3.42-0.19c-1.31-0.13-2.59-0.4-3.78-0.82c-1.21-0.42-2.25-1.05-3.1-1.87
				C58.45,93.5,58,92.36,58,90.95c0-1.05,0.28-1.95,0.83-2.65c0.53-0.68,1.24-1.25,2.09-1.7c0.84-0.43,1.8-0.77,2.85-1
				c1.04-0.23,2.09-0.39,3.15-0.49c1.05-0.1,2.07-0.16,3.03-0.17c0.96-0.01,1.77-0.02,2.42-0.02c0.71,0,1.51,0.04,2.38,0.13
				c0.71,0.07,1.39,0.17,2.01,0.3v-1.09c0.03-1.26-0.06-2.5-0.27-3.71c-0.2-1.2-0.58-2.29-1.13-3.24c-0.54-0.94-1.28-1.71-2.2-2.28
				c-0.92-0.57-2.11-0.86-3.54-0.86c-0.57,0-1.18,0.06-1.83,0.18c-0.63,0.12-1.23,0.33-1.78,0.61c-0.53,0.27-0.98,0.63-1.31,1.08
				c-0.33,0.43-0.49,0.96-0.49,1.63c0,0.59,0.09,1.04,0.27,1.34c0.18,0.31,0.41,0.53,0.71,0.69c0.31,0.17,0.63,0.28,0.96,0.33
				c0.37,0.06,0.73,0.12,1.07,0.19c0.37,0.08,0.68,0.19,0.92,0.33c0.22,0.13,0.47,0.39,0.47,0.93c0,0.41-0.15,0.74-0.44,0.97
				c-0.27,0.21-0.55,0.32-0.85,0.32c-0.73,0-1.51-0.1-2.32-0.31c-0.81-0.2-1.58-0.52-2.27-0.95c-0.7-0.43-1.28-0.97-1.74-1.61
				c-0.47-0.66-0.72-1.44-0.72-2.32c0-1.17,0.3-2.15,0.89-2.92c0.57-0.75,1.31-1.37,2.2-1.82c0.87-0.45,1.83-0.77,2.84-0.94
				c1-0.17,1.96-0.26,2.85-0.26c2.43,0,4.52,0.39,6.19,1.17c1.68,0.78,3.05,1.88,4.08,3.28c1.02,1.38,1.77,3.05,2.21,4.96
				c0.44,1.89,0.66,3.98,0.66,6.19c0,1.36-0.05,2.73-0.15,4.09c-0.09,1.23-0.2,2.45-0.32,3.68c0,0,2.83-0.37,2.84-0.37
				c0.32,0,0.61,0.1,0.9,0.28c0.33,0.21,0.5,0.52,0.5,0.88c0,0.78-0.41,1.26-1.16,1.37l-6.87,0.85
				C77.87,98.01,77.78,98.02,77.69,98.02z M72.12,87.45c-0.63,0-1.41,0.07-2.3,0.21c-0.89,0.14-1.76,0.37-2.58,0.7
				c-0.8,0.32-1.5,0.76-2.06,1.29c-0.53,0.51-0.79,1.13-0.79,1.89c0,0.64,0.16,1.13,0.48,1.51c0.33,0.4,0.77,0.72,1.29,0.95
				c0.54,0.24,1.12,0.4,1.75,0.48c0.64,0.08,1.25,0.12,1.8,0.12c1.24,0,2.51-0.15,3.78-0.46c1.2-0.29,2.27-0.83,3.19-1.62l0.08-4.57
				c-0.69-0.19-1.42-0.32-2.17-0.39C73.75,87.49,72.92,87.45,72.12,87.45z"/>
			<path class="st1" d="M69.07,71.94c2.4,0,4.42,0.38,6.06,1.14c1.64,0.76,2.96,1.82,3.96,3.18c1,1.35,1.72,2.97,2.16,4.85
				c0.44,1.88,0.66,3.92,0.66,6.12c0,1.35-0.05,2.71-0.15,4.06c-0.1,1.35-0.22,2.71-0.36,4.07l3.22-0.42c0.23,0,0.46,0.08,0.7,0.23
				c0.24,0.15,0.36,0.36,0.36,0.61c0,0.62-0.3,0.97-0.89,1.06l-6.86,0.85c-0.08,0.01-0.16,0.02-0.23,0.02
				c-0.25,0-0.43-0.08-0.56-0.23c-0.16-0.2-0.25-0.44-0.27-0.72c-0.03-0.28-0.03-0.58,0-0.89c0.03-0.31,0.04-0.56,0.04-0.76
				c-0.45,0.25-0.99,0.49-1.63,0.72c-0.63,0.23-1.28,0.42-1.95,0.59s-1.32,0.3-1.97,0.38c-0.65,0.08-1.23,0.13-1.74,0.13
				c-0.96,0-2.09-0.06-3.39-0.19c-1.3-0.13-2.53-0.4-3.7-0.8c-1.17-0.41-2.17-1.01-2.99-1.8c-0.82-0.79-1.23-1.85-1.23-3.18
				c0-0.99,0.25-1.81,0.76-2.46c0.51-0.65,1.17-1.19,1.99-1.61c0.82-0.42,1.74-0.75,2.77-0.97c1.03-0.23,2.07-0.39,3.11-0.49
				c1.04-0.1,2.05-0.15,3.01-0.17c0.96-0.01,1.76-0.02,2.41-0.02c0.71,0,1.49,0.04,2.35,0.13c0.86,0.08,1.64,0.21,2.35,0.38v-1.48
				c0.03-1.27-0.06-2.53-0.28-3.77c-0.21-1.24-0.6-2.36-1.16-3.35c-0.57-0.99-1.33-1.78-2.31-2.39c-0.97-0.61-2.21-0.91-3.7-0.91
				c-0.59,0-1.22,0.06-1.88,0.19c-0.66,0.13-1.28,0.34-1.86,0.64c-0.58,0.3-1.05,0.68-1.42,1.16c-0.37,0.48-0.55,1.09-0.55,1.82
				c0,0.65,0.11,1.15,0.32,1.5c0.21,0.35,0.49,0.62,0.83,0.8c0.34,0.18,0.69,0.3,1.06,0.36c0.37,0.06,0.72,0.12,1.06,0.19
				c0.34,0.07,0.61,0.17,0.83,0.3c0.21,0.13,0.32,0.35,0.32,0.66c0,0.31-0.11,0.55-0.32,0.72c-0.21,0.17-0.43,0.25-0.66,0.25
				c-0.71,0-1.45-0.1-2.24-0.3c-0.79-0.2-1.52-0.5-2.18-0.91c-0.66-0.41-1.21-0.92-1.65-1.52c-0.44-0.61-0.66-1.32-0.66-2.14
				c0-1.1,0.27-2.01,0.83-2.73c0.55-0.72,1.25-1.3,2.1-1.74c0.85-0.44,1.76-0.74,2.75-0.91C67.27,72.02,68.2,71.94,69.07,71.94
				 M69.71,94.93c1.27,0,2.55-0.15,3.85-0.47c1.3-0.31,2.44-0.9,3.43-1.78l0.08-4.95c-0.79-0.23-1.61-0.38-2.46-0.47
				c-0.85-0.08-1.68-0.13-2.5-0.13c-0.65,0-1.43,0.07-2.35,0.21c-0.92,0.14-1.8,0.38-2.65,0.72c-0.85,0.34-1.57,0.79-2.16,1.35
				c-0.59,0.57-0.89,1.27-0.89,2.12c0,0.71,0.18,1.28,0.55,1.71c0.37,0.44,0.83,0.78,1.4,1.04c0.56,0.25,1.18,0.42,1.84,0.51
				C68.53,94.89,69.14,94.93,69.71,94.93 M69.07,71.31c-0.91,0-1.88,0.09-2.9,0.26c-1.05,0.18-2.03,0.51-2.93,0.97
				c-0.93,0.48-1.7,1.12-2.31,1.91c-0.63,0.83-0.95,1.87-0.95,3.11c0,0.95,0.26,1.79,0.78,2.51c0.48,0.67,1.1,1.24,1.83,1.69
				c0.72,0.44,1.51,0.77,2.36,0.99c0.84,0.21,1.64,0.32,2.4,0.32c0.37,0,0.72-0.13,1.05-0.39c0.25-0.2,0.55-0.57,0.55-1.21
				c0-0.71-0.39-1.06-0.62-1.2c-0.27-0.16-0.61-0.29-1.02-0.37c-0.35-0.07-0.71-0.14-1.09-0.2c-0.29-0.05-0.58-0.14-0.85-0.29
				c-0.24-0.13-0.43-0.32-0.59-0.57c-0.11-0.17-0.23-0.52-0.23-1.18c0-0.6,0.14-1.07,0.42-1.44c0.31-0.4,0.71-0.74,1.21-0.99
				c0.52-0.27,1.09-0.46,1.7-0.58c0.62-0.12,1.22-0.18,1.77-0.18c1.37,0,2.5,0.27,3.37,0.82c0.88,0.55,1.58,1.28,2.09,2.17
				c0.53,0.92,0.89,1.98,1.09,3.14c0.2,1.19,0.29,2.42,0.27,3.65l0,0.72c-0.52-0.1-1.08-0.17-1.66-0.23
				c-0.87-0.09-1.69-0.13-2.41-0.13c-0.65,0-1.46,0.01-2.42,0.02c-0.97,0.01-2,0.07-3.06,0.17c-1.07,0.1-2.14,0.27-3.19,0.5
				c-1.08,0.24-2.07,0.58-2.93,1.03c-0.9,0.46-1.63,1.06-2.2,1.78c-0.59,0.76-0.9,1.72-0.9,2.84c0,1.5,0.48,2.72,1.42,3.63
				c0.88,0.85,1.96,1.5,3.21,1.94c1.22,0.42,2.51,0.71,3.85,0.84c1.31,0.13,2.47,0.19,3.45,0.19c0.53,0,1.14-0.04,1.82-0.13
				c0.67-0.09,1.36-0.22,2.04-0.39c0.68-0.17,1.36-0.38,2-0.61c0.26-0.09,0.5-0.19,0.73-0.28c-0.01,0.23,0,0.46,0.02,0.69
				c0.04,0.4,0.18,0.75,0.41,1.04c0.17,0.21,0.49,0.47,1.05,0.47c0.1,0,0.21-0.01,0.32-0.03l6.84-0.84
				c0.92-0.13,1.44-0.74,1.44-1.68c0-0.47-0.23-0.87-0.65-1.14c-0.34-0.22-0.69-0.33-1.04-0.33h-0.04l-0.04,0.01l-2.43,0.32
				c0.11-1.09,0.2-2.19,0.28-3.29c0.1-1.37,0.15-2.75,0.15-4.11c0-2.24-0.23-4.34-0.67-6.26c-0.46-1.95-1.22-3.66-2.27-5.08
				c-1.06-1.43-2.47-2.57-4.2-3.37C73.68,71.71,71.55,71.31,69.07,71.31L69.07,71.31z M69.71,94.3c-0.54,0-1.13-0.04-1.76-0.12
				c-0.6-0.08-1.16-0.23-1.66-0.46c-0.48-0.21-0.87-0.51-1.17-0.87c-0.27-0.32-0.4-0.75-0.4-1.31c0-0.67,0.23-1.22,0.69-1.66
				c0.53-0.51,1.19-0.92,1.96-1.23c0.8-0.32,1.64-0.55,2.51-0.68c0.88-0.14,1.64-0.21,2.25-0.21c0.79,0,1.61,0.04,2.44,0.12
				c0.64,0.06,1.27,0.17,1.88,0.32l-0.07,4.18c-0.86,0.71-1.85,1.2-2.95,1.46C72.17,94.15,70.92,94.3,69.71,94.3L69.71,94.3z"/>
		</g>
		<g>
			<path class="st1" d="M91.9,115.02c-1.34,0-2.73-0.16-4.11-0.47c-1.4-0.32-2.68-0.84-3.8-1.54c-1.13-0.71-2.08-1.64-2.81-2.76
				c-0.74-1.13-1.11-2.52-1.11-4.13c0-0.89,0.19-1.71,0.57-2.41c0.37-0.7,0.87-1.29,1.48-1.75c0.6-0.46,1.3-0.82,2.06-1.06
				c0.76-0.25,1.55-0.38,2.34-0.38c0.61,0,1.22,0.15,1.82,0.46c0.58,0.29,1.1,0.68,1.56,1.14c0.46,0.46,0.84,0.99,1.12,1.57
				c0.29,0.59,0.43,1.19,0.43,1.77c0,0.34-0.13,0.64-0.4,0.89c-0.26,0.24-0.56,0.36-0.89,0.36c-0.34,0-0.81-0.13-1.09-0.76
				c-0.17-0.38-0.36-0.79-0.57-1.24c-0.2-0.43-0.46-0.82-0.78-1.17c-0.28-0.31-0.74-0.47-1.37-0.47c-0.91,0-1.63,0.29-2.21,0.88
				c-0.58,0.59-0.86,1.31-0.86,2.19c0,1.01,0.25,1.9,0.73,2.67c0.5,0.78,1.14,1.46,1.91,2.01c0.77,0.55,1.64,0.98,2.6,1.27
				c0.96,0.29,1.9,0.43,2.79,0.43c1.87,0,3.47-0.44,4.76-1.32c1.29-0.89,2.35-2.04,3.14-3.41c0.8-1.39,1.39-2.94,1.74-4.61
				c0.36-1.68,0.54-3.33,0.54-4.91c0-2.23-0.01-4.42-0.02-6.58c-0.01-1.7-0.04-3.42-0.07-5.15c-0.21,0.43-0.45,0.85-0.7,1.27
				c-0.51,0.84-1.1,1.6-1.76,2.26c-0.67,0.67-1.45,1.22-2.31,1.63c-0.87,0.41-1.85,0.62-2.91,0.62c-0.94,0-1.82-0.17-2.6-0.51
				c-0.78-0.34-1.51-0.83-2.19-1.48c-0.84-0.72-1.54-1.64-2.08-2.74c-0.53-1.07-0.95-2.23-1.25-3.43c-0.3-1.2-0.51-2.42-0.62-3.63
				c-0.11-1.21-0.17-2.33-0.17-3.35c0-1.95,0.06-3.93,0.19-5.91c0.12-1.85,0.28-3.74,0.49-5.64c0,0-3.64,0.34-3.65,0.34
				c-0.35,0-0.65-0.11-0.92-0.32c-0.29-0.23-0.44-0.53-0.44-0.88c0-0.38,0.1-0.7,0.31-0.94c0.22-0.25,0.51-0.39,0.85-0.39
				c0,0,8.4-0.72,8.4-0.72c0.43,0,0.76,0.15,1.02,0.44c0.25,0.29,0.37,0.63,0.37,1.01c0,0.81-0.07,1.66-0.22,2.55
				c-0.14,0.85-0.25,1.7-0.34,2.52c-0.23,2.29-0.45,4.59-0.68,6.92c-0.22,2.3-0.34,4.62-0.34,6.89c0,0.6,0.06,1.3,0.19,2.09
				c0.12,0.78,0.34,1.52,0.63,2.21c0.29,0.68,0.7,1.26,1.2,1.74c0.48,0.45,1.07,0.67,1.82,0.67c1.11,0,2.02-0.38,2.78-1.17
				c0.79-0.81,1.45-1.88,1.97-3.16c0.53-1.3,0.95-2.79,1.25-4.41c0.31-1.63,0.54-3.26,0.7-4.84c0.15-1.59,0.25-3.09,0.29-4.45
				c0.04-1.38,0.06-2.46,0.06-3.25c0-0.78-0.03-1.55-0.08-2.31c-0.06-0.76-0.09-1.55-0.09-2.35c0-0.47,0.2-0.85,0.59-1.09
				c0.33-0.2,0.71-0.35,1.14-0.44c0.41-0.09,0.84-0.15,1.27-0.17c0.42-0.03,0.75-0.06,1-0.08c0.07-0.01,0.16-0.02,0.24-0.02
				c0.3,0,0.55,0.11,0.74,0.31c0.21,0.23,0.35,0.53,0.42,0.9c0.09,0.5,0.12,1.04,0.11,1.61c-0.01,0.55-0.02,1.08-0.02,1.58
				l0.17,7.28c0.08,3.36,0.16,6.68,0.23,9.97c0.07,3.28,0.11,6.64,0.11,9.98c0,1.66-0.08,3.37-0.23,5.07
				c-0.16,1.71-0.43,3.36-0.81,4.92c-0.38,1.57-0.93,3.07-1.63,4.45c-0.7,1.4-1.61,2.62-2.69,3.64c-1.08,1.03-2.41,1.85-3.93,2.44
				C95.78,114.72,93.96,115.02,91.9,115.02z"/>
			<path class="st1" d="M104.85,62.3c0.21,0,0.38,0.07,0.51,0.21c0.17,0.18,0.28,0.43,0.34,0.74c0.08,0.48,0.12,1,0.11,1.55
				c-0.01,0.55-0.02,1.08-0.02,1.59l0.17,7.28c0.08,3.36,0.16,6.68,0.23,9.97c0.07,3.29,0.11,6.61,0.11,9.97
				c0,1.67-0.08,3.34-0.23,5.04c-0.16,1.69-0.42,3.32-0.81,4.87c-0.38,1.55-0.92,3.01-1.61,4.38c-0.69,1.37-1.57,2.56-2.63,3.56
				c-1.06,1-2.34,1.79-3.83,2.37c-1.5,0.58-3.26,0.87-5.29,0.87c-1.33,0-2.67-0.16-4.04-0.47c-1.37-0.31-2.6-0.81-3.71-1.5
				c-1.1-0.69-2-1.58-2.71-2.67c-0.71-1.09-1.06-2.41-1.06-3.96c0-0.85,0.18-1.6,0.53-2.27c0.35-0.66,0.82-1.21,1.4-1.65
				c0.58-0.44,1.23-0.78,1.97-1.02c0.73-0.24,1.48-0.36,2.24-0.36c0.56,0,1.12,0.14,1.67,0.42c0.55,0.28,1.04,0.64,1.48,1.08
				c0.44,0.44,0.79,0.93,1.06,1.48c0.27,0.55,0.4,1.09,0.4,1.63c0,0.25-0.1,0.47-0.3,0.66c-0.2,0.18-0.42,0.27-0.68,0.27
				c-0.37,0-0.64-0.19-0.8-0.57c-0.17-0.38-0.36-0.8-0.57-1.25c-0.21-0.45-0.49-0.87-0.83-1.25c-0.34-0.38-0.88-0.57-1.61-0.57
				c-0.99,0-1.8,0.32-2.44,0.97c-0.63,0.65-0.95,1.45-0.95,2.41c0,1.07,0.26,2.02,0.78,2.84c0.52,0.82,1.19,1.52,1.99,2.1
				c0.8,0.58,1.7,1.02,2.69,1.31c0.99,0.3,1.95,0.44,2.88,0.44c1.95,0,3.59-0.46,4.93-1.38c1.34-0.92,2.42-2.09,3.24-3.52
				c0.82-1.42,1.41-2.99,1.78-4.7c0.37-1.71,0.55-3.37,0.55-4.98c0-2.23-0.01-4.42-0.02-6.58c-0.01-2.16-0.05-4.34-0.11-6.54
				c-0.34,0.85-0.76,1.68-1.25,2.5c-0.49,0.82-1.07,1.55-1.71,2.2c-0.65,0.65-1.39,1.17-2.22,1.57c-0.83,0.4-1.76,0.59-2.77,0.59
				c-0.9,0-1.73-0.16-2.48-0.49c-0.75-0.32-1.45-0.8-2.1-1.42c-0.82-0.71-1.49-1.59-2.01-2.65c-0.52-1.06-0.93-2.18-1.23-3.37
				c-0.3-1.19-0.5-2.38-0.61-3.58c-0.11-1.2-0.17-2.31-0.17-3.32c0-1.95,0.06-3.91,0.19-5.89c0.13-1.98,0.3-3.98,0.53-6.01
				l-4.02,0.38c-0.25,0-0.49-0.08-0.7-0.25c-0.21-0.17-0.32-0.38-0.32-0.63c0-0.31,0.08-0.56,0.23-0.74
				c0.16-0.18,0.36-0.27,0.61-0.27L90.08,63c0.31,0,0.56,0.11,0.76,0.34c0.2,0.23,0.3,0.49,0.3,0.81c0,0.79-0.07,1.62-0.21,2.5
				c-0.14,0.88-0.25,1.72-0.34,2.54c-0.23,2.29-0.45,4.59-0.68,6.92c-0.23,2.33-0.34,4.64-0.34,6.92c0,0.62,0.06,1.33,0.19,2.14
				c0.13,0.8,0.35,1.57,0.66,2.29c0.31,0.72,0.73,1.33,1.27,1.84c0.54,0.51,1.21,0.76,2.03,0.76c1.19,0,2.19-0.42,3.01-1.27
				c0.82-0.85,1.5-1.93,2.03-3.26c0.54-1.33,0.96-2.82,1.27-4.47c0.31-1.65,0.54-3.27,0.7-4.87c0.15-1.59,0.25-3.08,0.3-4.47
				c0.04-1.38,0.06-2.47,0.06-3.26c0-0.79-0.03-1.57-0.08-2.33c-0.06-0.76-0.08-1.54-0.08-2.33c0-0.37,0.15-0.64,0.44-0.83
				c0.3-0.18,0.64-0.32,1.04-0.4c0.4-0.08,0.8-0.14,1.23-0.17c0.42-0.03,0.76-0.06,1.02-0.08C104.71,62.31,104.78,62.3,104.85,62.3
				 M104.85,61.68c-0.1,0-0.21,0.01-0.32,0.03c-0.2,0.02-0.53,0.05-0.94,0.08c-0.45,0.03-0.9,0.09-1.32,0.18
				c-0.46,0.1-0.88,0.26-1.24,0.48c-0.48,0.3-0.74,0.78-0.74,1.36c0,0.81,0.03,1.61,0.09,2.38c0.06,0.74,0.08,1.51,0.08,2.28
				c0,0.79-0.02,1.88-0.06,3.24c-0.04,1.35-0.14,2.84-0.29,4.43c-0.15,1.57-0.39,3.19-0.69,4.81c-0.3,1.6-0.72,3.07-1.24,4.35
				c-0.5,1.25-1.14,2.27-1.9,3.06c-0.7,0.73-1.54,1.08-2.55,1.08c-0.66,0-1.18-0.19-1.6-0.59c-0.47-0.45-0.85-1-1.13-1.64
				c-0.29-0.67-0.49-1.38-0.61-2.14c-0.12-0.77-0.18-1.46-0.18-2.04c0-2.26,0.11-4.57,0.34-6.86c0.23-2.33,0.45-4.64,0.68-6.92
				c0.08-0.81,0.2-1.65,0.33-2.5c0.15-0.9,0.22-1.78,0.22-2.6c0-0.46-0.15-0.87-0.45-1.22c-0.32-0.36-0.75-0.56-1.24-0.56h-0.03
				l-0.03,0l-8.4,0.72c-0.43,0.01-0.79,0.18-1.06,0.5c-0.26,0.3-0.38,0.69-0.38,1.15c0,0.45,0.19,0.83,0.55,1.12
				c0.33,0.26,0.69,0.39,1.09,0.39h0.03l0.03,0l3.26-0.31c-0.19,1.77-0.34,3.54-0.45,5.27c-0.13,1.97-0.19,3.97-0.19,5.93
				c0,1.03,0.06,2.17,0.17,3.38c0.11,1.22,0.33,2.46,0.63,3.67c0.3,1.22,0.73,2.4,1.27,3.49c0.56,1.13,1.29,2.09,2.16,2.85
				c0.68,0.65,1.44,1.17,2.26,1.52c0.82,0.36,1.74,0.54,2.73,0.54c1.11,0,2.13-0.22,3.04-0.65c0.89-0.42,1.7-0.99,2.4-1.69
				c0.68-0.68,1.29-1.46,1.81-2.32c0.05-0.08,0.09-0.16,0.14-0.24c0.02,1.33,0.04,2.65,0.05,3.96c0.01,2.16,0.02,4.35,0.02,6.58
				c0,1.55-0.18,3.18-0.54,4.84c-0.35,1.64-0.93,3.16-1.71,4.52c-0.77,1.34-1.79,2.45-3.05,3.31c-1.23,0.84-2.77,1.27-4.58,1.27
				c-0.86,0-1.77-0.14-2.7-0.42c-0.92-0.28-1.76-0.69-2.5-1.22c-0.74-0.53-1.35-1.18-1.83-1.92c-0.46-0.72-0.68-1.54-0.68-2.5
				c0-0.8,0.25-1.44,0.77-1.97c0.52-0.53,1.17-0.79,1.99-0.79c0.54,0,0.93,0.12,1.14,0.36c0.3,0.33,0.54,0.7,0.73,1.1
				c0.21,0.45,0.4,0.86,0.57,1.24c0.27,0.61,0.76,0.94,1.38,0.94c0.41,0,0.79-0.15,1.1-0.44c0.33-0.31,0.5-0.69,0.5-1.12
				c0-0.63-0.16-1.27-0.47-1.9c-0.3-0.61-0.69-1.17-1.18-1.65c-0.48-0.48-1.04-0.89-1.64-1.19c-0.64-0.33-1.3-0.49-1.96-0.49
				c-0.83,0-1.65,0.13-2.44,0.39c-0.8,0.26-1.52,0.63-2.15,1.11c-0.65,0.49-1.18,1.11-1.57,1.86c-0.4,0.75-0.6,1.61-0.6,2.56
				c0,1.67,0.39,3.11,1.16,4.3c0.75,1.16,1.73,2.12,2.9,2.86c1.15,0.73,2.47,1.26,3.9,1.58c1.41,0.32,2.82,0.48,4.18,0.48
				c2.1,0,3.96-0.31,5.52-0.91c1.57-0.61,2.92-1.45,4.04-2.5c1.11-1.05,2.03-2.3,2.75-3.73c0.71-1.41,1.27-2.93,1.66-4.52
				c0.39-1.57,0.66-3.24,0.82-4.96c0.16-1.71,0.24-3.42,0.24-5.1c0-3.34-0.04-6.7-0.11-9.99c-0.07-3.29-0.15-6.61-0.23-9.97
				l-0.17-7.28c0-0.49,0.01-1.01,0.02-1.56c0.01-0.59-0.02-1.15-0.12-1.67c-0.08-0.43-0.25-0.79-0.5-1.06
				C105.57,61.82,105.24,61.68,104.85,61.68L104.85,61.68z"/>
		</g>
		<g>
			<path class="st1" d="M133.73,115.27c-0.31,0-0.59-0.11-0.83-0.34c-0.25-0.23-0.38-0.51-0.38-0.82l-8.56-68.14l-3.9-0.44
				c-0.36-0.08-0.62-0.23-0.82-0.47c-0.2-0.24-0.31-0.53-0.31-0.86c0-0.33,0.12-0.63,0.36-0.89c0.2-0.22,0.45-0.33,0.72-0.33
				c0.08,0,0.15,0.01,0.23,0.03l15.84,1.73c0.36,0.08,0.63,0.25,0.83,0.5c0.2,0.25,0.3,0.55,0.3,0.87c0,0.34-0.12,0.63-0.37,0.88
				c-0.24,0.24-0.54,0.37-0.88,0.37c-0.88,0-1.88-0.09-2.95-0.28c-0.89-0.15-1.72-0.27-2.48-0.36l6.08,44.74l10.57-57.39
				c0.08-0.31,0.24-0.56,0.48-0.74c0.24-0.18,0.51-0.28,0.8-0.28c0.31,0,0.58,0.12,0.82,0.35c0.21,0.21,0.35,0.46,0.42,0.74
				l9.14,60.36l9.1-46.29c-0.93,0.1-1.94,0.23-3.04,0.38c-1.28,0.17-2.43,0.26-3.43,0.26c-0.34,0-0.64-0.12-0.89-0.36
				c-0.26-0.24-0.4-0.55-0.4-0.89c0-0.36,0.11-0.67,0.34-0.91c0.23-0.25,0.53-0.38,0.87-0.38l11.06-1.14l-0.18-5.64l-4.95,0.71
				c-0.07,0.02-0.16,0.03-0.25,0.03c-0.25,0-0.48-0.07-0.71-0.22c-0.33-0.21-0.5-0.52-0.5-0.88c0-0.29,0.06-0.58,0.17-0.85
				c0.1-0.22,0.32-0.51,0.84-0.61l10.68-1.53c0.08-0.01,0.17-0.02,0.25-0.02c0.29,0,0.56,0.09,0.79,0.28
				c0.3,0.25,0.46,0.58,0.46,0.99l-0.85,36.68c0.17-0.36,0.35-0.71,0.54-1.07c0.45-0.85,0.99-1.62,1.61-2.31
				c0.63-0.69,1.36-1.25,2.16-1.68c0.82-0.43,1.76-0.65,2.79-0.65c1.6,0,2.95,0.31,4.01,0.93c1.06,0.62,1.91,1.45,2.54,2.48
				c0.62,1.02,1.07,2.19,1.31,3.47c0.24,1.28,0.37,2.6,0.37,3.93c0,2.36-0.12,4.77-0.36,7.17c-0.22,2.23-0.42,4.51-0.59,6.79
				c0,0,2.51-0.29,2.51-0.29c0.35,0,0.65,0.09,0.94,0.28c0.33,0.22,0.5,0.52,0.5,0.88c0,0.34-0.08,0.64-0.24,0.9
				c-0.13,0.21-0.39,0.47-0.93,0.47l-10.38,1.23c-0.06,0.01-0.15,0.02-0.24,0.02c-0.24,0-0.49-0.07-0.72-0.22
				c-0.35-0.21-0.53-0.53-0.53-0.92c0-0.8,0.41-1.31,1.16-1.41l2.58-0.27c0.11-2.73,0.2-5.43,0.26-8.11
				c0.07-2.79,0.11-5.59,0.11-8.33c0-0.33-0.03-0.87-0.08-1.61c-0.06-0.72-0.18-1.45-0.37-2.17c-0.19-0.7-0.45-1.33-0.77-1.87
				c-0.28-0.47-0.64-0.69-1.09-0.69c-0.95,0-1.76,0.31-2.48,0.94c-0.74,0.65-1.39,1.5-1.94,2.54c-0.55,1.05-1.02,2.24-1.39,3.56
				c-0.38,1.32-0.68,2.66-0.9,3.97c-0.22,1.32-0.39,2.58-0.51,3.74c-0.11,1.17-0.17,2.13-0.17,2.85l-0.08,3.85l3.63-0.31
				c0.04-0.01,0.12-0.02,0.2-0.02c0.26,0,0.51,0.09,0.74,0.28c0.3,0.24,0.46,0.55,0.46,0.9c0,0.32-0.09,0.61-0.27,0.86
				c-0.19,0.27-0.49,0.44-0.88,0.51c0,0-12.19,1.02-12.19,1.02c-0.34,0-0.64-0.1-0.91-0.29c-0.29-0.21-0.45-0.51-0.45-0.87
				c0-1.24,0.81-1.37,1.16-1.37l4.63-0.4l-1.45-45.05l-1.94,0.19l-12.79,65.32c-0.08,0.31-0.24,0.55-0.48,0.74
				c-0.24,0.18-0.51,0.28-0.8,0.28c-0.69,0-1.13-0.4-1.24-1.12l-9.61-56.51l-10.6,57.58c-0.08,0.32-0.24,0.56-0.48,0.74
				C134.34,115.18,134.06,115.27,133.73,115.27z"/>
			<path class="st1" d="M148.47,33.36c0.23,0,0.42,0.08,0.59,0.25s0.28,0.37,0.34,0.59l9.4,62.12l9.53-48.48
				c-1.04,0.11-2.2,0.25-3.47,0.42c-1.27,0.17-2.4,0.25-3.39,0.25c-0.25,0-0.48-0.09-0.68-0.27c-0.2-0.18-0.3-0.4-0.3-0.66
				c0-0.28,0.08-0.51,0.25-0.7c0.17-0.18,0.38-0.27,0.64-0.27l11.38-1.17l-0.2-6.28l-5.29,0.76c-0.07,0.02-0.14,0.02-0.2,0.02
				c-0.18,0-0.36-0.06-0.54-0.17c-0.24-0.15-0.36-0.36-0.36-0.61c0-0.25,0.05-0.49,0.15-0.72c0.1-0.23,0.3-0.37,0.61-0.42
				l10.67-1.52c0.07-0.01,0.14-0.02,0.21-0.02c0.22,0,0.42,0.07,0.59,0.21c0.23,0.18,0.34,0.43,0.34,0.74l-0.89,38.24
				c0.34-0.82,0.73-1.64,1.16-2.48c0.44-0.83,0.96-1.58,1.57-2.24c0.61-0.66,1.3-1.2,2.08-1.61c0.78-0.41,1.66-0.61,2.65-0.61
				c1.55,0,2.84,0.3,3.85,0.89c1.02,0.59,1.83,1.38,2.43,2.37c0.61,0.99,1.03,2.11,1.27,3.37c0.24,1.26,0.36,2.55,0.36,3.87
				c0,2.37-0.12,4.75-0.36,7.13c-0.24,2.39-0.44,4.78-0.61,7.18l2.88-0.34c0.25,0,0.5,0.08,0.74,0.23c0.24,0.16,0.36,0.36,0.36,0.61
				c0,0.28-0.06,0.53-0.19,0.74c-0.13,0.21-0.35,0.32-0.66,0.32l-10.42,1.23c-0.07,0.01-0.13,0.02-0.2,0.02
				c-0.19,0-0.37-0.06-0.56-0.17c-0.25-0.16-0.38-0.37-0.38-0.66c0-0.65,0.3-1.02,0.89-1.1l2.84-0.3c0.11-2.82,0.2-5.62,0.28-8.38
				c0.07-2.77,0.11-5.55,0.11-8.34c0-0.34-0.03-0.88-0.08-1.63c-0.06-0.75-0.18-1.49-0.38-2.22c-0.2-0.73-0.47-1.38-0.8-1.95
				s-0.79-0.85-1.36-0.85c-1.02,0-1.91,0.34-2.69,1.02c-0.78,0.68-1.45,1.55-2.01,2.63c-0.57,1.07-1.04,2.28-1.42,3.62
				c-0.38,1.34-0.68,2.68-0.91,4c-0.23,1.33-0.4,2.58-0.51,3.77c-0.11,1.19-0.17,2.15-0.17,2.88l-0.08,4.19l3.98-0.34
				c0.06-0.01,0.12-0.02,0.18-0.02c0.19,0,0.37,0.07,0.54,0.21c0.23,0.18,0.34,0.4,0.34,0.66c0,0.25-0.07,0.48-0.21,0.68
				c-0.14,0.2-0.37,0.32-0.68,0.38l-12.15,1.02c-0.25,0-0.49-0.08-0.7-0.23c-0.21-0.15-0.32-0.36-0.32-0.61
				c0-0.7,0.28-1.06,0.85-1.06l4.95-0.42l-1.47-45.68l-2.51,0.25l-12.83,65.55c-0.06,0.23-0.18,0.41-0.36,0.55
				c-0.18,0.14-0.39,0.21-0.61,0.21c-0.54,0-0.85-0.28-0.93-0.85l-9.91-58.26l-10.92,59.32c-0.06,0.23-0.18,0.41-0.36,0.55
				c-0.18,0.14-0.4,0.21-0.66,0.21c-0.23,0-0.43-0.08-0.61-0.25c-0.18-0.17-0.28-0.37-0.28-0.59l-8.6-68.43l-4.15-0.47
				c-0.25-0.06-0.46-0.18-0.61-0.36c-0.16-0.18-0.23-0.4-0.23-0.66c0-0.25,0.09-0.48,0.27-0.68c0.14-0.15,0.31-0.23,0.49-0.23
				c0.05,0,0.11,0.01,0.16,0.02h0.08l15.79,1.74c0.25,0.06,0.46,0.18,0.61,0.38c0.15,0.2,0.23,0.42,0.23,0.68
				c0,0.25-0.09,0.47-0.28,0.66c-0.18,0.18-0.4,0.28-0.66,0.28c-0.88,0-1.84-0.09-2.9-0.28c-1.06-0.18-2.03-0.32-2.9-0.4l6.39,47.09
				l10.92-59.32c0.06-0.23,0.18-0.41,0.36-0.55C148.04,33.43,148.24,33.36,148.47,33.36 M148.47,32.73c-0.37,0-0.7,0.12-1,0.34
				c-0.3,0.23-0.49,0.53-0.59,0.89l-10.22,55.5l-5.76-42.39c0.64,0.08,1.33,0.18,2.06,0.31c1.09,0.19,2.1,0.29,3.01,0.29
				c0.42,0,0.8-0.16,1.1-0.46c0.3-0.3,0.46-0.68,0.46-1.1c0-0.4-0.12-0.75-0.37-1.06c-0.25-0.31-0.57-0.52-0.97-0.61l-0.03-0.01
				l-0.04,0l-15.79-1.74l-0.03,0h-0.03h-0.03c-0.07-0.01-0.15-0.02-0.22-0.02c-0.36,0-0.69,0.15-0.95,0.43
				c-0.29,0.32-0.44,0.7-0.44,1.11c0,0.4,0.13,0.77,0.38,1.06c0.24,0.29,0.57,0.48,0.96,0.57l0.03,0.01l0.03,0l3.66,0.41l8.53,67.9
				c0.01,0.38,0.18,0.73,0.48,1.01c0.3,0.27,0.66,0.42,1.04,0.42c0.39,0,0.74-0.12,1.04-0.34c0.3-0.23,0.49-0.53,0.59-0.89
				l10.29-55.87l9.31,54.77c0.13,0.85,0.71,1.37,1.55,1.37c0.37,0,0.7-0.11,1-0.34c0.3-0.23,0.49-0.53,0.59-0.9l12.75-65.12
				l1.38-0.13l1.43,44.41l-4.34,0.37c-0.38,0.01-1.44,0.16-1.44,1.69c0,0.45,0.2,0.85,0.57,1.12c0.32,0.24,0.68,0.35,1.07,0.35h0.03
				l0.03,0l12.15-1.02l0.03,0l0.03-0.01c0.47-0.09,0.84-0.3,1.08-0.63c0.22-0.31,0.33-0.66,0.33-1.04c0-0.31-0.1-0.76-0.57-1.14
				c-0.29-0.23-0.61-0.35-0.94-0.35c-0.09,0-0.18,0.01-0.27,0.03l-3.25,0.28l0.07-3.49c0-0.72,0.06-1.67,0.17-2.83
				c0.11-1.16,0.28-2.42,0.5-3.72c0.22-1.3,0.52-2.63,0.9-3.94c0.37-1.29,0.83-2.47,1.37-3.5c0.53-1,1.15-1.82,1.87-2.44
				c0.66-0.58,1.41-0.86,2.28-0.86c0.23,0,0.53,0.06,0.82,0.54c0.31,0.51,0.55,1.11,0.74,1.79c0.19,0.69,0.31,1.4,0.36,2.11
				c0.05,0.73,0.08,1.26,0.08,1.58c0,2.76-0.04,5.56-0.11,8.33c-0.07,2.56-0.15,5.19-0.25,7.83l-2.3,0.24
				c-0.93,0.13-1.45,0.76-1.45,1.73c0,0.5,0.24,0.92,0.68,1.19c0.29,0.18,0.59,0.26,0.89,0.26c0.1,0,0.2-0.01,0.3-0.03l10.36-1.22
				c0.69-0.01,1.02-0.39,1.15-0.62c0.19-0.31,0.28-0.67,0.28-1.06c0-0.47-0.23-0.87-0.65-1.14c-0.35-0.22-0.71-0.33-1.08-0.33h-0.04
				l-0.04,0l-2.12,0.25c0.16-2.14,0.34-4.29,0.56-6.4c0.24-2.4,0.36-4.82,0.36-7.2c0-1.36-0.12-2.7-0.37-3.99
				c-0.25-1.32-0.71-2.53-1.35-3.58c-0.66-1.07-1.55-1.94-2.65-2.59c-1.11-0.65-2.51-0.97-4.17-0.97c-1.09,0-2.07,0.23-2.94,0.69
				c-0.84,0.44-1.59,1.03-2.25,1.74c-0.6,0.66-1.13,1.4-1.57,2.21l0.82-35.29c0-0.51-0.2-0.94-0.57-1.24
				c-0.29-0.23-0.62-0.35-0.99-0.35c-0.1,0-0.21,0.01-0.32,0.03l-10.65,1.52c-0.68,0.13-0.97,0.5-1.1,0.79
				c-0.13,0.31-0.2,0.63-0.2,0.97c0,0.47,0.23,0.87,0.65,1.14c0.28,0.18,0.57,0.27,0.88,0.27c0.11,0,0.23-0.01,0.34-0.04l4.55-0.65
				l0.16,5l-10.77,1.11c-0.41,0.01-0.78,0.17-1.06,0.48c-0.28,0.3-0.42,0.69-0.42,1.13c0,0.43,0.17,0.82,0.5,1.12
				c0.31,0.29,0.69,0.44,1.1,0.44c1.01,0,2.18-0.09,3.47-0.26c0.93-0.12,1.8-0.23,2.61-0.33l-8.66,44.1l-8.86-58.54l0-0.03
				l-0.01-0.03c-0.09-0.34-0.25-0.63-0.5-0.88C149.22,32.89,148.86,32.73,148.47,32.73L148.47,32.73z"/>
		</g>
		<g>
			<path class="st1" d="M231.55,98.89c-1.12,0-2.08-0.35-2.87-1.03c-0.76-0.66-1.4-1.52-1.9-2.54c-0.49-1-0.87-2.15-1.15-3.42
				c-0.27-1.24-0.47-2.49-0.6-3.74c-0.13-1.24-0.21-2.4-0.24-3.48c-0.03-1.08-0.04-1.94-0.04-2.59c0-5.22,0.08-10.51,0.23-15.72
				c0.15-5.1,0.3-10.21,0.43-15.34l-4.76,0.59c-0.05,0.01-0.13,0.03-0.22,0.03c-0.23,0-0.46-0.08-0.67-0.23
				c-0.31-0.21-0.47-0.53-0.47-0.91c0-0.8,0.4-1.3,1.12-1.41l5.12-0.69l0.16-5.45c0.08-0.28,0.17-0.47,0.28-0.65
				c0.14-0.21,0.35-0.38,0.64-0.48c0,0,1.36-0.53,1.71-0.68c0.36-0.14,0.69-0.27,1-0.38c0.37-0.13,0.59-0.19,0.74-0.19
				c0.82,0,1.29,0.5,1.29,1.37c0,0.98-0.03,2-0.08,3.04c-0.05,0.91-0.1,1.82-0.15,2.74l6.91-0.8c0.04-0.01,0.13-0.02,0.21-0.02
				c0.23,0,0.46,0.08,0.68,0.23c0.31,0.22,0.48,0.52,0.48,0.87c0,0.31-0.08,0.6-0.23,0.88c-0.17,0.31-0.47,0.5-0.87,0.58l-7.29,0.9
				l-0.75,16.61c-0.25,5.59-0.38,11.29-0.38,16.94c0,0.25-0.01,0.71-0.02,1.36c-0.01,0.64,0,1.35,0.04,2.18
				c0.04,0.82,0.11,1.66,0.19,2.55c0.08,0.86,0.22,1.66,0.41,2.38c0.19,0.7,0.43,1.28,0.72,1.73c0.25,0.39,0.57,0.58,0.96,0.58
				c0.57,0,1.04-0.13,1.37-0.4c0.36-0.28,0.64-0.63,0.85-1.06c0.21-0.44,0.36-0.92,0.44-1.45c0.08-0.54,0.12-1.07,0.12-1.56
				c0-0.33,0.11-0.62,0.34-0.87c0.23-0.25,0.52-0.38,0.87-0.38c0.51,0,0.87,0.16,1.07,0.49c0.17,0.28,0.26,0.62,0.26,1.01
				c0,0.81-0.12,1.71-0.35,2.68c-0.23,0.97-0.59,1.89-1.07,2.73c-0.49,0.85-1.1,1.57-1.84,2.13
				C233.48,98.59,232.57,98.89,231.55,98.89z"/>
			<path class="st1" d="M230.07,40.9c0.65,0,0.97,0.35,0.97,1.06c0,0.99-0.03,2-0.08,3.03c-0.06,1.03-0.11,2.07-0.17,3.11l7.28-0.85
				c0.06-0.01,0.12-0.02,0.18-0.02c0.17,0,0.33,0.06,0.5,0.17c0.22,0.16,0.34,0.36,0.34,0.61c0,0.25-0.06,0.49-0.19,0.72
				c-0.13,0.23-0.35,0.37-0.66,0.42l-7.54,0.93c-0.25,5.62-0.51,11.24-0.76,16.87c-0.26,5.63-0.38,11.28-0.38,16.96
				c0,0.25-0.01,0.71-0.02,1.35c-0.01,0.65,0,1.38,0.04,2.2c0.04,0.82,0.11,1.67,0.19,2.56c0.08,0.89,0.22,1.7,0.42,2.44
				c0.2,0.74,0.45,1.34,0.76,1.82c0.31,0.48,0.72,0.72,1.23,0.72c0.65,0,1.17-0.15,1.57-0.47c0.4-0.31,0.71-0.7,0.93-1.16
				c0.22-0.47,0.38-0.98,0.47-1.55s0.13-1.1,0.13-1.61c0-0.25,0.09-0.47,0.26-0.66c0.17-0.18,0.38-0.27,0.63-0.27
				c0.4,0,0.66,0.11,0.8,0.34s0.21,0.51,0.21,0.85c0,0.79-0.11,1.66-0.34,2.6c-0.23,0.95-0.57,1.83-1.04,2.65
				c-0.47,0.82-1.05,1.5-1.76,2.03c-0.71,0.54-1.54,0.8-2.5,0.8c-1.04,0-1.93-0.32-2.67-0.95c-0.73-0.64-1.34-1.45-1.82-2.44
				c-0.48-0.99-0.85-2.1-1.12-3.34c-0.27-1.24-0.47-2.48-0.59-3.71c-0.13-1.23-0.2-2.38-0.23-3.45c-0.03-1.07-0.04-1.93-0.04-2.58
				c0-5.25,0.08-10.49,0.23-15.71c0.15-5.22,0.3-10.46,0.44-15.71l-5.12,0.63c-0.06,0.02-0.12,0.02-0.18,0.02
				c-0.17,0-0.33-0.06-0.5-0.17c-0.23-0.15-0.34-0.37-0.34-0.66c0-0.65,0.28-1.02,0.85-1.1l5.38-0.72l0.17-5.72
				c0.06-0.17,0.13-0.33,0.23-0.49c0.1-0.15,0.26-0.27,0.49-0.36c0.14-0.06,0.37-0.15,0.7-0.28c0.32-0.13,0.66-0.26,1.02-0.4
				c0.35-0.14,0.68-0.27,1-0.38C229.74,40.96,229.95,40.9,230.07,40.9 M230.07,40.27c-0.2,0-0.44,0.06-0.85,0.21
				c-0.32,0.12-0.66,0.25-1.02,0.39c-0.35,0.14-0.69,0.27-1.01,0.4c-0.33,0.13-0.56,0.22-0.71,0.28c-0.34,0.13-0.61,0.33-0.78,0.61
				c-0.13,0.2-0.23,0.41-0.3,0.63l-0.03,0.09l0,0.09l-0.15,5.18l-4.85,0.65c-0.89,0.13-1.39,0.76-1.39,1.72
				c0,0.49,0.22,0.9,0.61,1.17c0.27,0.19,0.56,0.28,0.85,0.28c0.1,0,0.2-0.01,0.29-0.03l4.36-0.54c-0.14,5.01-0.28,10-0.42,14.98
				c-0.15,5.19-0.23,10.48-0.23,15.73c0,0.67,0.01,1.54,0.04,2.6c0.03,1.07,0.11,2.25,0.24,3.5c0.13,1.26,0.33,2.53,0.6,3.77
				c0.28,1.29,0.67,2.46,1.17,3.49c0.51,1.06,1.18,1.94,1.97,2.63c0.85,0.73,1.88,1.11,3.08,1.11c1.09,0,2.06-0.31,2.88-0.93
				c0.77-0.59,1.42-1.33,1.92-2.22c0.49-0.87,0.86-1.81,1.1-2.81c0.24-0.99,0.36-1.91,0.36-2.75c0-0.46-0.1-0.85-0.31-1.18
				c-0.18-0.29-0.56-0.63-1.34-0.63c-0.43,0-0.81,0.16-1.1,0.48c-0.28,0.3-0.42,0.68-0.42,1.08c0,0.48-0.04,0.99-0.12,1.52
				c-0.07,0.5-0.21,0.96-0.41,1.37c-0.19,0.38-0.43,0.69-0.75,0.94c-0.28,0.22-0.67,0.33-1.18,0.33c-0.2,0-0.45-0.05-0.7-0.43
				c-0.28-0.42-0.51-0.98-0.68-1.64c-0.19-0.7-0.32-1.48-0.4-2.33c-0.08-0.85-0.15-1.7-0.19-2.54c-0.04-0.82-0.06-1.53-0.04-2.15
				c0.01-0.66,0.02-1.11,0.02-1.37c0-5.66,0.13-11.35,0.38-16.93l0.43-9.57l0.31-6.78l7.01-0.87c0.66-0.12,0.97-0.47,1.13-0.74
				c0.18-0.32,0.27-0.66,0.27-1.03c0-0.46-0.22-0.86-0.61-1.13c-0.28-0.19-0.56-0.28-0.86-0.28c-0.1,0-0.19,0.01-0.29,0.03
				l-6.51,0.76c0.04-0.79,0.09-1.58,0.13-2.37c0.06-1.04,0.08-2.07,0.08-3.06C231.67,40.9,231.07,40.27,230.07,40.27L230.07,40.27z"
				/>
		</g>
		<g>
			<path class="st1" d="M244.55,84.32c-0.34,0-0.64-0.13-0.89-0.4c-0.24-0.26-0.36-0.58-0.36-0.98c0-1.31,0.08-2.71,0.24-4.16
				c0.15-1.45,0.39-2.92,0.7-4.37c0.31-1.45,0.72-2.89,1.2-4.27c0.48-1.39,1.06-2.71,1.71-3.9c0.54-0.99,1.14-1.96,1.8-2.87
				l1.95-2.71c1.09-1.43,2.09-2.97,2.96-4.58c0.88-1.61,1.63-3.31,2.25-5.06c0.61-1.74,1.09-3.55,1.43-5.37
				c0.33-1.82,0.5-3.64,0.5-5.43c0-1.39-0.1-2.87-0.29-4.41c-0.19-1.53-0.51-3.05-0.94-4.53c-0.43-1.47-1-2.9-1.69-4.24
				c-0.69-1.33-1.54-2.53-2.53-3.55c-0.79-0.79-1.66-1.44-2.59-1.93c-0.91-0.48-1.94-0.73-3.07-0.73c-1.76,0-3.45,0.27-5.02,0.81
				c-1.56,0.54-2.96,1.32-4.15,2.34c-1.19,1.01-2.14,2.26-2.84,3.71c-0.7,1.45-1.05,3.11-1.05,4.95c0,0.82,0.09,1.67,0.27,2.52
				c0.18,0.84,0.48,1.61,0.89,2.29c0.41,0.68,0.95,1.24,1.6,1.66c0.64,0.42,1.44,0.63,2.39,0.63c1.13,0,2.13-0.24,2.98-0.7
				c0.83-0.45,1.45-1.26,1.84-2.39c0.08-0.2,0.11-0.39,0.11-0.6c0-0.28,0.05-0.55,0.15-0.81c0.09-0.33,0.21-0.6,0.36-0.8
				c0.19-0.25,0.49-0.38,0.91-0.38c0.52,0,0.8,0.24,0.95,0.45c0.19,0.26,0.29,0.55,0.29,0.84c0,1.09-0.22,2.08-0.65,2.94
				c-0.43,0.85-1,1.58-1.71,2.17c-0.7,0.59-1.53,1.04-2.45,1.35c-0.92,0.31-1.88,0.46-2.87,0.46c-1.38,0-2.57-0.3-3.53-0.89
				c-0.95-0.59-1.74-1.36-2.34-2.3c-0.59-0.93-1.04-2-1.31-3.17c-0.27-1.17-0.41-2.35-0.41-3.52c0-2.15,0.43-4.13,1.28-5.87
				c0.85-1.74,2.01-3.24,3.45-4.46c1.44-1.22,3.11-2.17,4.97-2.81c1.78-0.62,3.68-0.93,5.65-0.93l0.51,0c1.09,0,2.24,0.14,3.42,0.41
				c1.17,0.27,2.27,0.63,3.27,1.05c2.08,0.86,3.86,1.99,5.26,3.37c1.4,1.38,2.55,2.94,3.41,4.66c0.86,1.71,1.47,3.58,1.83,5.57
				c0.35,1.97,0.54,4.04,0.54,6.13c0,2.44-0.25,4.63-0.75,6.5c-0.5,1.87-1.17,3.57-2,5.07c-0.83,1.5-1.78,2.88-2.83,4.1
				c-1.04,1.21-2.12,2.41-3.2,3.57s-2.16,2.35-3.19,3.53c-1.03,1.18-1.96,2.49-2.76,3.89c-0.8,1.4-1.46,2.99-1.94,4.71
				c-0.48,1.73-0.73,3.76-0.73,6.03c0,0.95,0.05,1.89,0.15,2.78c0.1,0.92,0.19,1.83,0.28,2.74l0,0.2c0,0.3-0.09,0.57-0.28,0.81
				c-0.18,0.24-0.43,0.4-0.72,0.47c-0.37,0.09-0.75,0.18-1.14,0.28C245.35,84.27,244.94,84.32,244.55,84.32z"/>
			<path class="st1" d="M246.67,18.62c0.08,0,0.17,0,0.25,0h0.25c1.07,0,2.19,0.14,3.35,0.4c1.16,0.27,2.23,0.61,3.22,1.04
				c2.06,0.85,3.78,1.95,5.16,3.3c1.38,1.35,2.5,2.88,3.35,4.57c0.85,1.69,1.45,3.52,1.8,5.48c0.35,1.96,0.53,3.99,0.53,6.08
				c0,2.43-0.25,4.57-0.74,6.41c-0.49,1.85-1.15,3.52-1.97,5c-0.82,1.48-1.75,2.83-2.8,4.04c-1.04,1.21-2.11,2.4-3.2,3.56
				c-1.09,1.16-2.15,2.34-3.2,3.54c-1.04,1.2-1.98,2.51-2.79,3.94c-0.82,1.43-1.48,3.02-1.97,4.79c-0.49,1.76-0.74,3.8-0.74,6.12
				c0,0.96,0.05,1.9,0.15,2.82c0.1,0.92,0.19,1.83,0.27,2.73v0.17c0,0.23-0.07,0.43-0.21,0.61c-0.14,0.18-0.32,0.3-0.55,0.36
				c-0.37,0.08-0.75,0.18-1.14,0.27c-0.4,0.1-0.78,0.15-1.14,0.15c-0.25,0-0.47-0.1-0.66-0.3c-0.18-0.2-0.27-0.45-0.27-0.76
				c0-1.3,0.08-2.67,0.23-4.13c0.15-1.45,0.39-2.9,0.7-4.34c0.31-1.44,0.71-2.85,1.19-4.23c0.48-1.38,1.04-2.67,1.69-3.85
				c0.54-0.99,1.13-1.93,1.78-2.84s1.3-1.81,1.95-2.71c1.1-1.44,2.1-2.98,2.98-4.62c0.89-1.64,1.64-3.34,2.27-5.1
				c0.62-1.76,1.1-3.57,1.44-5.42c0.34-1.85,0.51-3.68,0.51-5.48c0-1.41-0.1-2.89-0.3-4.45c-0.2-1.55-0.51-3.08-0.95-4.57
				c-0.44-1.5-1.01-2.93-1.71-4.3c-0.71-1.37-1.57-2.58-2.58-3.62c-0.82-0.82-1.71-1.48-2.67-1.99c-0.96-0.51-2.03-0.76-3.22-0.76
				c-1.81,0-3.51,0.27-5.12,0.82c-1.61,0.55-3.03,1.35-4.26,2.39c-1.23,1.04-2.2,2.31-2.92,3.81c-0.72,1.5-1.08,3.19-1.08,5.08
				c0,0.85,0.09,1.71,0.27,2.58c0.18,0.88,0.49,1.67,0.93,2.39c0.44,0.72,1,1.31,1.69,1.76c0.69,0.45,1.55,0.68,2.56,0.68
				c1.19,0,2.23-0.25,3.13-0.74c0.9-0.49,1.57-1.35,1.99-2.56c0.08-0.23,0.13-0.46,0.13-0.7c0-0.24,0.04-0.47,0.13-0.7
				c0.08-0.31,0.19-0.55,0.32-0.72c0.13-0.17,0.34-0.25,0.66-0.25s0.54,0.11,0.7,0.32c0.15,0.21,0.23,0.43,0.23,0.66
				c0,1.04-0.21,1.98-0.61,2.79c-0.41,0.82-0.95,1.51-1.63,2.07c-0.68,0.57-1.46,1-2.35,1.29c-0.89,0.3-1.81,0.45-2.77,0.45
				c-1.33,0-2.45-0.28-3.37-0.85c-0.92-0.56-1.67-1.3-2.24-2.2c-0.58-0.9-1-1.93-1.27-3.07c-0.27-1.14-0.4-2.29-0.4-3.45
				c0-2.12,0.42-4.03,1.25-5.74c0.83-1.71,1.96-3.16,3.37-4.36c1.41-1.2,3.03-2.12,4.87-2.75
				C242.88,18.93,244.73,18.62,246.67,18.62 M246.67,18c-2.01,0-3.94,0.32-5.76,0.95c-1.9,0.66-3.6,1.62-5.07,2.87
				c-1.47,1.25-2.66,2.79-3.52,4.57c-0.87,1.79-1.31,3.81-1.31,6.01c0,1.2,0.14,2.41,0.42,3.59c0.28,1.21,0.74,2.31,1.35,3.27
				c0.63,0.98,1.45,1.79,2.44,2.4c1.01,0.62,2.26,0.94,3.69,0.94c1.02,0,2.02-0.16,2.97-0.48c0.96-0.32,1.82-0.79,2.55-1.4
				c0.74-0.62,1.34-1.38,1.79-2.28c0.45-0.91,0.68-1.94,0.68-3.08c0-0.36-0.12-0.71-0.35-1.03c-0.19-0.26-0.56-0.57-1.21-0.57
				c-0.65,0-0.99,0.28-1.16,0.51c-0.17,0.23-0.31,0.52-0.41,0.9c-0.1,0.29-0.16,0.59-0.16,0.89c0,0.16-0.03,0.32-0.09,0.48
				c-0.38,1.09-0.93,1.81-1.7,2.23c-0.81,0.44-1.76,0.66-2.83,0.66c-0.89,0-1.63-0.19-2.22-0.58c-0.61-0.4-1.11-0.92-1.5-1.56
				c-0.4-0.65-0.68-1.39-0.85-2.19c-0.17-0.83-0.26-1.65-0.26-2.45c0-1.79,0.34-3.41,1.02-4.81c0.68-1.41,1.61-2.62,2.76-3.6
				c1.16-0.99,2.53-1.75,4.05-2.28c1.54-0.52,3.19-0.79,4.92-0.79c1.08,0,2.06,0.23,2.92,0.69c0.9,0.48,1.75,1.11,2.52,1.88
				c0.96,0.99,1.79,2.16,2.47,3.46c0.68,1.32,1.24,2.73,1.67,4.19c0.43,1.45,0.74,2.96,0.93,4.48c0.19,1.52,0.29,2.99,0.29,4.37
				c0,1.76-0.17,3.57-0.5,5.37c-0.33,1.81-0.81,3.6-1.41,5.32c-0.61,1.73-1.36,3.41-2.23,5.01c-0.87,1.6-1.86,3.13-2.93,4.53
				l-0.98,1.37l-0.97,1.35c-0.66,0.92-1.27,1.9-1.82,2.9c-0.66,1.21-1.25,2.54-1.74,3.95c-0.49,1.4-0.89,2.85-1.21,4.31
				c-0.31,1.46-0.55,2.94-0.71,4.41c-0.16,1.47-0.24,2.88-0.24,4.2c0,0.47,0.15,0.87,0.44,1.19c0.3,0.32,0.69,0.5,1.12,0.5
				c0.42,0,0.85-0.06,1.3-0.17c0.39-0.1,0.77-0.19,1.13-0.27c0.38-0.09,0.68-0.29,0.91-0.59c0.23-0.29,0.34-0.63,0.34-1v-0.17v-0.03
				l0-0.03c-0.08-0.91-0.18-1.82-0.28-2.74c-0.1-0.89-0.14-1.81-0.14-2.75c0-2.25,0.24-4.25,0.72-5.95
				c0.48-1.71,1.12-3.27,1.91-4.64c0.79-1.38,1.71-2.67,2.72-3.84c1.03-1.19,2.1-2.37,3.18-3.52c1.09-1.16,2.17-2.36,3.21-3.58
				c1.07-1.24,2.03-2.63,2.87-4.15c0.84-1.52,1.52-3.25,2.03-5.14c0.51-1.9,0.76-4.11,0.76-6.58c0-2.12-0.18-4.2-0.54-6.19
				c-0.36-2.01-0.99-3.92-1.86-5.65c-0.87-1.75-2.04-3.34-3.47-4.74c-1.43-1.41-3.24-2.56-5.37-3.44c-1.01-0.43-2.12-0.79-3.31-1.07
				c-1.2-0.28-2.38-0.42-3.49-0.42h-0.25L246.67,18L246.67,18z"/>
		</g>
		<g>
			<path class="st1" d="M245.86,98.63c-0.74,0-1.39-0.2-1.94-0.59c-0.53-0.38-0.97-0.86-1.31-1.43c-0.34-0.56-0.6-1.18-0.78-1.84
				c-0.17-0.65-0.26-1.3-0.26-1.92c0-0.59,0.1-1.22,0.29-1.85c0.19-0.64,0.48-1.23,0.85-1.76c0.37-0.54,0.84-0.99,1.38-1.35
				c0.56-0.37,1.21-0.56,1.95-0.56c0.74,0,1.39,0.2,1.94,0.59c0.53,0.38,0.96,0.85,1.29,1.41c0.33,0.55,0.57,1.16,0.73,1.82
				c0.16,0.66,0.24,1.29,0.24,1.88c0,0.62-0.1,1.27-0.29,1.91c-0.19,0.65-0.47,1.25-0.82,1.78c-0.36,0.54-0.81,1-1.36,1.36
				C247.21,98.44,246.57,98.63,245.86,98.63z"/>
			<path class="st1" d="M246.03,87.65c0.68,0,1.26,0.18,1.76,0.53c0.49,0.35,0.9,0.79,1.21,1.31c0.31,0.52,0.54,1.1,0.7,1.74
				c0.15,0.64,0.23,1.24,0.23,1.8c0,0.59-0.09,1.2-0.27,1.82c-0.18,0.62-0.44,1.19-0.78,1.69s-0.76,0.93-1.27,1.27
				s-1.09,0.51-1.74,0.51c-0.68,0-1.26-0.18-1.76-0.53c-0.49-0.35-0.9-0.8-1.23-1.33c-0.32-0.54-0.57-1.12-0.74-1.76
				c-0.17-0.63-0.25-1.25-0.25-1.84c0-0.56,0.09-1.15,0.27-1.76c0.18-0.61,0.45-1.16,0.8-1.67c0.35-0.51,0.78-0.93,1.29-1.27
				S245.35,87.65,246.03,87.65 M246.03,87.02c-0.8,0-1.51,0.21-2.13,0.61c-0.57,0.38-1.06,0.86-1.46,1.43
				c-0.39,0.56-0.69,1.18-0.89,1.85c-0.2,0.66-0.3,1.31-0.3,1.94c0,0.65,0.09,1.32,0.27,2c0.18,0.69,0.46,1.33,0.81,1.92
				c0.37,0.61,0.84,1.12,1.4,1.52c0.6,0.43,1.31,0.65,2.12,0.65c0.77,0,1.47-0.21,2.09-0.61c0.58-0.38,1.06-0.87,1.44-1.44
				c0.37-0.56,0.66-1.18,0.86-1.86c0.2-0.67,0.3-1.34,0.3-2c0-0.61-0.08-1.27-0.25-1.95c-0.17-0.69-0.43-1.33-0.77-1.91
				c-0.36-0.6-0.82-1.1-1.38-1.5C247.55,87.24,246.84,87.02,246.03,87.02L246.03,87.02z"/>
		</g>
		<g>
			<path class="st1" d="M215.61,98.02c-0.44,0-0.68-0.19-0.8-0.35c-0.19-0.24-0.31-0.54-0.34-0.88c-0.03-0.3-0.03-0.62,0-0.95
				c0.01-0.07,0.01-0.14,0.02-0.21c-0.35,0.17-0.75,0.33-1.19,0.49c-0.65,0.23-1.31,0.43-1.98,0.6c-0.67,0.17-1.34,0.3-2,0.39
				c-0.67,0.09-1.26,0.13-1.78,0.13c-0.97,0-2.12-0.07-3.42-0.19c-1.31-0.13-2.58-0.4-3.78-0.82c-1.21-0.42-2.26-1.05-3.1-1.87
				c-0.88-0.85-1.32-1.99-1.32-3.4c0-1.05,0.28-1.95,0.83-2.65c0.53-0.68,1.24-1.25,2.09-1.7c0.84-0.43,1.8-0.77,2.85-1
				c1.04-0.23,2.1-0.39,3.15-0.49c1.05-0.1,2.07-0.16,3.03-0.17c0.96-0.01,1.77-0.02,2.42-0.02c0.71,0,1.51,0.04,2.38,0.13
				c0.71,0.07,1.39,0.17,2,0.3v-1.09c0.03-1.25-0.06-2.5-0.27-3.71c-0.2-1.19-0.58-2.29-1.13-3.24c-0.54-0.94-1.28-1.71-2.2-2.28
				c-0.92-0.57-2.11-0.86-3.54-0.86c-0.57,0-1.18,0.06-1.83,0.18c-0.64,0.12-1.23,0.33-1.78,0.61c-0.54,0.27-0.98,0.64-1.31,1.08
				c-0.33,0.43-0.49,0.96-0.49,1.63c0,0.59,0.09,1.04,0.27,1.34c0.18,0.31,0.41,0.53,0.71,0.69c0.31,0.17,0.63,0.28,0.96,0.33
				c0.37,0.06,0.73,0.12,1.08,0.19c0.37,0.08,0.68,0.19,0.92,0.33c0.22,0.13,0.47,0.39,0.47,0.93c0,0.41-0.15,0.74-0.44,0.97
				c-0.26,0.21-0.55,0.32-0.85,0.32c-0.73,0-1.51-0.1-2.32-0.31c-0.82-0.2-1.58-0.52-2.27-0.95c-0.7-0.43-1.28-0.97-1.74-1.61
				c-0.47-0.66-0.72-1.44-0.72-2.32c0-1.17,0.3-2.15,0.89-2.92c0.57-0.75,1.31-1.37,2.2-1.82c0.87-0.45,1.83-0.77,2.84-0.94
				c1-0.17,1.96-0.26,2.85-0.26c2.43,0,4.52,0.39,6.19,1.17c1.68,0.78,3.05,1.89,4.08,3.28c1.02,1.38,1.77,3.05,2.21,4.96
				c0.44,1.9,0.67,3.98,0.67,6.19c0,1.34-0.05,2.71-0.15,4.09c-0.09,1.23-0.2,2.45-0.32,3.68c0,0,2.83-0.37,2.84-0.37
				c0.32,0,0.61,0.1,0.9,0.28c0.33,0.21,0.5,0.52,0.5,0.88c0,0.78-0.41,1.26-1.16,1.37l-6.87,0.85
				C215.79,98.01,215.7,98.02,215.61,98.02z M210.04,87.45c-0.63,0-1.41,0.07-2.3,0.21c-0.89,0.14-1.76,0.37-2.58,0.7
				c-0.81,0.32-1.5,0.76-2.06,1.29c-0.53,0.51-0.79,1.13-0.79,1.89c0,0.64,0.16,1.13,0.48,1.51c0.33,0.4,0.77,0.72,1.29,0.95
				c0.54,0.24,1.12,0.4,1.75,0.48c0.64,0.08,1.25,0.12,1.8,0.12c1.24,0,2.51-0.15,3.78-0.46c1.2-0.29,2.27-0.83,3.19-1.62l0.08-4.57
				c-0.69-0.19-1.42-0.32-2.17-0.39C211.67,87.49,210.84,87.45,210.04,87.45z"/>
			<path class="st1" d="M206.99,71.94c2.4,0,4.42,0.38,6.06,1.14c1.64,0.76,2.96,1.82,3.96,3.18c1,1.35,1.72,2.97,2.16,4.85
				c0.44,1.88,0.66,3.92,0.66,6.12c0,1.35-0.05,2.71-0.15,4.06c-0.1,1.35-0.22,2.71-0.36,4.07l3.22-0.42c0.22,0,0.46,0.08,0.7,0.23
				c0.24,0.15,0.36,0.36,0.36,0.61c0,0.62-0.3,0.97-0.89,1.06l-6.86,0.85c-0.08,0.01-0.16,0.02-0.23,0.02
				c-0.25,0-0.43-0.08-0.55-0.23c-0.15-0.2-0.25-0.44-0.27-0.72c-0.03-0.28-0.03-0.58,0-0.89c0.03-0.31,0.04-0.56,0.04-0.76
				c-0.45,0.25-0.99,0.49-1.63,0.72c-0.63,0.23-1.29,0.42-1.95,0.59c-0.66,0.17-1.32,0.3-1.97,0.38c-0.65,0.08-1.23,0.13-1.74,0.13
				c-0.96,0-2.09-0.06-3.39-0.19c-1.3-0.13-2.53-0.4-3.7-0.8c-1.17-0.41-2.17-1.01-2.99-1.8c-0.82-0.79-1.23-1.85-1.23-3.18
				c0-0.99,0.25-1.81,0.76-2.46c0.51-0.65,1.17-1.19,1.99-1.61c0.82-0.42,1.74-0.75,2.77-0.97c1.03-0.23,2.07-0.39,3.11-0.49
				c1.05-0.1,2.05-0.15,3.01-0.17c0.96-0.01,1.76-0.02,2.41-0.02c0.71,0,1.49,0.04,2.35,0.13c0.86,0.08,1.64,0.21,2.35,0.38v-1.48
				c0.03-1.27-0.06-2.53-0.27-3.77c-0.21-1.24-0.6-2.36-1.16-3.35c-0.57-0.99-1.33-1.78-2.31-2.39c-0.97-0.61-2.21-0.91-3.71-0.91
				c-0.59,0-1.22,0.06-1.88,0.19c-0.66,0.13-1.29,0.34-1.86,0.64c-0.58,0.3-1.05,0.68-1.42,1.16c-0.37,0.48-0.55,1.09-0.55,1.82
				c0,0.65,0.11,1.15,0.32,1.5c0.21,0.35,0.49,0.62,0.82,0.8c0.34,0.18,0.69,0.3,1.06,0.36s0.72,0.12,1.06,0.19
				c0.34,0.07,0.61,0.17,0.82,0.3c0.21,0.13,0.32,0.35,0.32,0.66c0,0.31-0.11,0.55-0.32,0.72c-0.21,0.17-0.43,0.25-0.66,0.25
				c-0.71,0-1.46-0.1-2.25-0.3c-0.79-0.2-1.52-0.5-2.18-0.91c-0.66-0.41-1.21-0.92-1.65-1.52c-0.44-0.61-0.66-1.32-0.66-2.14
				c0-1.1,0.27-2.01,0.83-2.73c0.55-0.72,1.25-1.3,2.1-1.74c0.85-0.44,1.76-0.74,2.75-0.91C205.18,72.02,206.11,71.94,206.99,71.94
				 M207.62,94.93c1.27,0,2.55-0.15,3.85-0.47c1.3-0.31,2.44-0.9,3.43-1.78l0.08-4.95c-0.79-0.23-1.61-0.38-2.45-0.47
				c-0.85-0.08-1.68-0.13-2.5-0.13c-0.65,0-1.43,0.07-2.35,0.21c-0.92,0.14-1.8,0.38-2.65,0.72c-0.85,0.34-1.57,0.79-2.16,1.35
				c-0.59,0.57-0.89,1.27-0.89,2.12c0,0.71,0.18,1.28,0.55,1.71c0.37,0.44,0.83,0.78,1.4,1.04c0.56,0.25,1.18,0.42,1.84,0.51
				C206.45,94.89,207.06,94.93,207.62,94.93 M206.99,71.31c-0.91,0-1.88,0.09-2.9,0.26c-1.05,0.18-2.04,0.51-2.93,0.97
				c-0.93,0.48-1.7,1.12-2.31,1.91c-0.63,0.83-0.95,1.87-0.95,3.11c0,0.95,0.26,1.79,0.78,2.51c0.48,0.67,1.1,1.24,1.83,1.69
				c0.72,0.44,1.51,0.77,2.36,0.99c0.84,0.21,1.64,0.32,2.4,0.32c0.37,0,0.72-0.13,1.05-0.39c0.25-0.2,0.55-0.57,0.55-1.21
				c0-0.71-0.39-1.06-0.62-1.2c-0.27-0.16-0.61-0.29-1.02-0.37c-0.35-0.07-0.72-0.14-1.09-0.2c-0.29-0.05-0.58-0.14-0.85-0.29
				c-0.24-0.13-0.43-0.32-0.59-0.57c-0.11-0.17-0.23-0.52-0.23-1.18c0-0.6,0.14-1.07,0.42-1.44c0.31-0.4,0.71-0.74,1.21-0.99
				c0.52-0.27,1.09-0.46,1.7-0.58c0.62-0.12,1.22-0.18,1.77-0.18c1.37,0,2.5,0.27,3.37,0.82c0.88,0.55,1.58,1.28,2.1,2.17
				c0.53,0.92,0.89,1.98,1.09,3.14c0.2,1.19,0.29,2.42,0.27,3.65l0,0.72c-0.52-0.1-1.08-0.17-1.66-0.23
				c-0.87-0.09-1.69-0.13-2.41-0.13c-0.65,0-1.46,0.01-2.42,0.02c-0.97,0.01-2,0.07-3.06,0.17c-1.07,0.1-2.14,0.27-3.19,0.5
				c-1.08,0.24-2.07,0.58-2.93,1.03c-0.89,0.46-1.63,1.06-2.2,1.78c-0.59,0.76-0.9,1.72-0.9,2.84c0,1.5,0.48,2.72,1.42,3.63
				c0.88,0.85,1.96,1.5,3.21,1.94c1.22,0.42,2.51,0.71,3.85,0.84c1.31,0.13,2.47,0.19,3.45,0.19c0.53,0,1.14-0.04,1.82-0.13
				c0.67-0.09,1.36-0.22,2.04-0.39c0.68-0.17,1.36-0.38,2-0.61c0.26-0.09,0.5-0.19,0.73-0.28c-0.01,0.24,0,0.46,0.02,0.69
				c0.04,0.4,0.18,0.75,0.41,1.04c0.17,0.22,0.49,0.47,1.05,0.47c0.1,0,0.21-0.01,0.32-0.03l6.84-0.84
				c0.92-0.13,1.44-0.74,1.44-1.68c0-0.47-0.23-0.87-0.65-1.14c-0.34-0.22-0.69-0.33-1.04-0.33h-0.04l-0.04,0.01l-2.43,0.32
				c0.11-1.11,0.2-2.21,0.28-3.29c0.1-1.38,0.15-2.76,0.15-4.11c0-2.24-0.23-4.34-0.67-6.26c-0.46-1.95-1.22-3.66-2.27-5.08
				c-1.06-1.43-2.47-2.57-4.2-3.37C211.6,71.71,209.47,71.31,206.99,71.31L206.99,71.31z M207.62,94.3c-0.54,0-1.13-0.04-1.76-0.12
				c-0.6-0.08-1.16-0.23-1.66-0.46c-0.48-0.21-0.87-0.51-1.17-0.87c-0.27-0.32-0.41-0.75-0.41-1.31c0-0.67,0.23-1.22,0.69-1.66
				c0.53-0.51,1.19-0.92,1.96-1.23c0.8-0.32,1.64-0.55,2.51-0.68c0.88-0.14,1.64-0.21,2.25-0.21c0.79,0,1.61,0.04,2.44,0.12
				c0.64,0.06,1.27,0.17,1.88,0.32l-0.07,4.18c-0.86,0.71-1.85,1.2-2.95,1.46C210.09,94.15,208.84,94.3,207.62,94.3L207.62,94.3z"/>
		</g>
	</g>
	<g>
		<g>
			<path class="st2" d="M49.49,116.12c-1.64,0-3.23-0.36-4.74-1.08c-1.49-0.71-2.81-1.65-3.93-2.82c-1.12-1.16-2.02-2.52-2.69-4.04
				c-0.67-1.53-1-3.13-1-4.76c0-0.84,0.11-1.71,0.31-2.6c0.21-0.91,0.55-1.75,1.01-2.49c0.47-0.77,1.08-1.4,1.82-1.89
				c0.76-0.5,1.7-0.76,2.78-0.76c1.43,0,2.65,0.45,3.64,1.35c0.96,0.86,1.63,1.93,2,3.16l0.03,0.09v0.39c0,0.42-0.16,0.8-0.46,1.1
				c-0.3,0.3-0.68,0.46-1.1,0.46c-0.57,0-1.05-0.31-1.34-0.87c-0.18-0.35-0.39-0.74-0.61-1.16c-0.19-0.36-0.46-0.69-0.8-0.99
				c-0.27-0.25-0.73-0.37-1.36-0.37c-0.51,0-0.91,0.13-1.24,0.39c-0.37,0.3-0.65,0.66-0.87,1.1c-0.23,0.47-0.4,0.99-0.5,1.53
				c-0.11,0.57-0.16,1.09-0.16,1.56c0,1.18,0.25,2.35,0.75,3.5c0.5,1.15,1.19,2.19,2.06,3.07c0.86,0.89,1.86,1.62,2.98,2.16
				c1.09,0.53,2.24,0.8,3.41,0.8c2.23,0,3.87-0.63,5.01-1.93c1.15-1.3,1.73-3.08,1.73-5.28c0-1.81-0.35-3.68-1.04-5.56
				c-0.71-1.92-1.65-3.9-2.81-5.89c-1.17-2-2.51-4.06-3.99-6.13c-1.5-2.09-3.03-4.21-4.61-6.37c-1.58-2.16-3.14-4.38-4.63-6.58
				c-1.5-2.23-2.87-4.51-4.06-6.79c-1.2-2.29-2.17-4.65-2.9-7.01c-0.73-2.38-1.11-4.81-1.11-7.24c0-2.77,0.47-5.5,1.39-8.11
				c0.93-2.62,2.35-4.99,4.24-7.05c0.72-0.81,1.53-1.57,2.4-2.27c0.88-0.7,1.81-1.31,2.79-1.82c0.98-0.51,2.03-0.92,3.11-1.21
				c1.09-0.3,2.22-0.45,3.34-0.45c2.08,0,4.07,0.4,5.92,1.19c1.45,0.62,2.75,1.49,3.88,2.6l0.24-1.81c0.12-0.68,0.48-0.97,0.76-1.1
				c0.3-0.14,0.64-0.21,1.01-0.21c0.46,0,0.87,0.23,1.14,0.64c0.31,0.49,0.3,0.92,0.23,1.19l-1.98,14.25
				c-0.12,0.67-0.46,0.96-0.72,1.09c-0.29,0.14-0.64,0.21-1.04,0.21c-0.47,0-0.87-0.23-1.14-0.65c-0.24-0.37-0.32-0.81-0.24-1.25
				l1.16-7.93c-0.78-0.46-1.55-0.9-2.31-1.32c-0.79-0.44-1.68-0.66-2.64-0.66c-0.59,0-1.27,0.11-2.03,0.33
				c-0.8,0.23-1.48,0.46-2.02,0.68c-1.43,0.63-2.67,1.46-3.67,2.45c-1.01,0.99-1.83,2.13-2.46,3.39c-0.63,1.27-1.09,2.65-1.36,4.09
				c-0.27,1.47-0.41,3-0.41,4.56c0,3.48,0.46,6.75,1.37,9.72c0.92,3,2.09,5.88,3.47,8.55c1.4,2.69,2.92,5.3,4.54,7.76
				c1.64,2.49,3.18,5,4.59,7.46c1.42,2.49,2.62,5.05,3.56,7.61c0.95,2.6,1.44,5.38,1.44,8.26c0,1.57-0.18,3.08-0.55,4.48
				c-0.37,1.43-0.98,2.7-1.81,3.76c-0.83,1.07-1.91,1.93-3.19,2.55C52.82,115.81,51.27,116.12,49.49,116.12z"/>
			<path class="st1" d="M48.35,33.9c2,0,3.9,0.38,5.67,1.14c1.78,0.76,3.3,1.91,4.57,3.43l0.42-3.13c0.06-0.31,0.19-0.52,0.4-0.61
				c0.21-0.1,0.46-0.15,0.74-0.15c0.25,0,0.46,0.12,0.61,0.36c0.15,0.24,0.2,0.47,0.15,0.7l-1.99,14.31
				c-0.06,0.31-0.18,0.52-0.38,0.61c-0.2,0.1-0.45,0.15-0.76,0.15c-0.25,0-0.46-0.12-0.61-0.36c-0.16-0.24-0.2-0.5-0.15-0.78
				l1.23-8.38c-0.9-0.54-1.8-1.05-2.69-1.55c-0.89-0.49-1.87-0.74-2.94-0.74c-0.65,0-1.38,0.12-2.2,0.36
				c-0.82,0.24-1.51,0.47-2.07,0.7c-1.52,0.68-2.82,1.54-3.87,2.58c-1.06,1.04-1.92,2.23-2.58,3.56c-0.66,1.33-1.14,2.75-1.42,4.26
				c-0.28,1.51-0.42,3.07-0.42,4.68c0,3.56,0.47,6.86,1.4,9.91c0.93,3.05,2.1,5.94,3.51,8.66c1.41,2.72,2.94,5.33,4.57,7.81
				c1.64,2.48,3.16,4.96,4.57,7.43c1.41,2.47,2.58,4.98,3.51,7.52c0.93,2.54,1.4,5.22,1.4,8.05c0,1.52-0.18,2.96-0.53,4.32
				c-0.35,1.35-0.92,2.53-1.69,3.54c-0.78,1-1.76,1.79-2.96,2.37c-1.2,0.58-2.65,0.87-4.34,0.87c-1.55,0-3.04-0.34-4.47-1.02
				c-1.43-0.68-2.68-1.57-3.75-2.69c-1.07-1.11-1.93-2.4-2.56-3.85c-0.63-1.45-0.95-2.96-0.95-4.51c0-0.79,0.1-1.61,0.3-2.46
				c0.2-0.85,0.51-1.62,0.93-2.31c0.42-0.69,0.97-1.26,1.63-1.69c0.66-0.44,1.47-0.66,2.43-0.66c1.27,0,2.34,0.4,3.22,1.19
				c0.87,0.79,1.48,1.75,1.82,2.88v0.3c0,0.25-0.09,0.47-0.27,0.66c-0.18,0.18-0.4,0.27-0.66,0.27c-0.34,0-0.6-0.18-0.78-0.53
				c-0.18-0.35-0.39-0.74-0.61-1.16c-0.23-0.42-0.54-0.81-0.93-1.16c-0.4-0.35-0.99-0.53-1.78-0.53c-0.65,0-1.19,0.18-1.63,0.53
				c-0.44,0.35-0.78,0.79-1.04,1.31c-0.25,0.52-0.44,1.09-0.55,1.69c-0.11,0.61-0.17,1.16-0.17,1.67c0,1.27,0.27,2.52,0.8,3.75
				c0.54,1.23,1.26,2.31,2.18,3.26c0.92,0.95,1.97,1.71,3.15,2.29c1.19,0.58,2.41,0.87,3.68,0.87c2.4,0,4.23-0.71,5.48-2.14
				c1.26-1.42,1.88-3.32,1.88-5.69c0-1.89-0.36-3.82-1.08-5.78c-0.72-1.96-1.67-3.96-2.86-5.99c-1.19-2.03-2.53-4.09-4.02-6.18
				c-1.5-2.09-3.03-4.21-4.62-6.37c-1.58-2.16-3.12-4.35-4.62-6.56c-1.5-2.22-2.84-4.46-4.02-6.73c-1.19-2.27-2.14-4.57-2.86-6.9
				c-0.72-2.33-1.08-4.68-1.08-7.05c0-2.71,0.45-5.34,1.35-7.9c0.9-2.55,2.27-4.83,4.11-6.84c0.71-0.79,1.48-1.52,2.33-2.2
				c0.85-0.68,1.74-1.26,2.69-1.76c0.95-0.49,1.94-0.88,2.99-1.16C46.22,34.04,47.28,33.9,48.35,33.9 M48.35,32.64
				c-1.18,0-2.36,0.16-3.5,0.47c-1.13,0.3-2.22,0.73-3.24,1.26c-1.01,0.53-1.99,1.17-2.89,1.89c-0.9,0.72-1.73,1.51-2.48,2.35
				c-1.93,2.11-3.4,4.55-4.35,7.26c-0.95,2.68-1.43,5.47-1.43,8.32c0,2.49,0.38,4.98,1.14,7.42c0.74,2.39,1.73,4.79,2.95,7.11
				c1.2,2.31,2.58,4.61,4.1,6.85c1.5,2.22,3.06,4.44,4.64,6.6c1.53,2.09,3.08,4.23,4.61,6.36c1.47,2.05,2.8,4.1,3.96,6.08
				c1.14,1.96,2.07,3.91,2.76,5.79c0.67,1.81,1,3.61,1,5.35c0,2.07-0.51,3.66-1.57,4.86c-1.02,1.15-2.5,1.71-4.54,1.71
				c-1.07,0-2.13-0.25-3.13-0.74c-1.05-0.51-1.99-1.2-2.8-2.03c-0.81-0.83-1.46-1.8-1.93-2.89c-0.46-1.06-0.7-2.15-0.7-3.24
				c0-0.43,0.05-0.91,0.15-1.44c0.09-0.49,0.24-0.95,0.44-1.37c0.17-0.36,0.4-0.65,0.7-0.89c0.13-0.11,0.37-0.25,0.84-0.25
				c0.64,0,0.87,0.15,0.94,0.21c0.28,0.25,0.5,0.52,0.66,0.82c0.22,0.42,0.43,0.8,0.61,1.15c0.4,0.77,1.09,1.21,1.9,1.21
				c0.59,0,1.12-0.22,1.54-0.64c0.42-0.43,0.65-0.96,0.65-1.55v-0.3v-0.18l-0.05-0.18c-0.4-1.35-1.14-2.51-2.18-3.45
				c-1.11-1-2.47-1.51-4.06-1.51c-1.21,0-2.26,0.29-3.13,0.86c-0.82,0.54-1.49,1.24-2.01,2.09c-0.49,0.81-0.86,1.71-1.08,2.68
				c-0.22,0.94-0.33,1.86-0.33,2.74c0,1.72,0.36,3.4,1.06,5.01c0.69,1.59,1.64,3.01,2.81,4.22c1.17,1.22,2.56,2.21,4.11,2.95
				c1.59,0.75,3.27,1.14,5.01,1.14c1.88,0,3.52-0.33,4.89-0.99c1.37-0.66,2.52-1.58,3.41-2.73c0.88-1.13,1.52-2.48,1.92-3.99
				c0.38-1.45,0.57-3.01,0.57-4.64c0-2.96-0.5-5.81-1.47-8.48c-0.95-2.59-2.16-5.19-3.6-7.71c-1.42-2.48-2.97-5-4.61-7.5
				c-1.61-2.44-3.12-5.03-4.51-7.7c-1.37-2.64-2.52-5.48-3.43-8.45c-0.89-2.92-1.34-6.13-1.34-9.54c0-1.52,0.14-3.02,0.4-4.45
				c0.26-1.39,0.7-2.71,1.31-3.92c0.6-1.2,1.39-2.28,2.34-3.22c0.95-0.93,2.13-1.72,3.5-2.33c0.48-0.19,1.14-0.41,1.92-0.64
				c0.7-0.2,1.32-0.31,1.85-0.31c0.86,0,1.63,0.19,2.33,0.58c0.63,0.35,1.28,0.72,1.93,1.1l-1.1,7.52c-0.11,0.59,0,1.17,0.33,1.68
				c0.38,0.59,0.99,0.93,1.67,0.93c0.51,0,0.95-0.1,1.33-0.28c0.32-0.16,0.88-0.57,1.05-1.51l0-0.03l0-0.03l1.98-14.26
				c0.08-0.39,0.08-0.97-0.33-1.6c-0.39-0.61-0.99-0.94-1.67-0.94c-0.47,0-0.89,0.09-1.27,0.26c-0.34,0.16-0.93,0.57-1.11,1.53
				l-0.01,0.03l0,0.03l-0.09,0.64c-0.96-0.79-2.02-1.43-3.17-1.92C52.59,33.06,50.52,32.64,48.35,32.64L48.35,32.64z"/>
		</g>
		<g>
			<path class="st2" d="M79.54,97.38c-0.56,0-0.88-0.26-1.05-0.47c-0.23-0.29-0.37-0.65-0.41-1.05c-0.02-0.22-0.03-0.45-0.02-0.68
				c-0.23,0.1-0.47,0.19-0.73,0.28c-0.65,0.23-1.32,0.44-2,0.61c-0.68,0.17-1.36,0.31-2.04,0.39c-0.68,0.09-1.29,0.13-1.82,0.13
				c-0.97,0-2.13-0.06-3.45-0.19c-1.34-0.13-2.64-0.41-3.85-0.84c-1.25-0.44-2.33-1.09-3.21-1.94c-0.94-0.91-1.42-2.13-1.42-3.63
				c0-1.12,0.3-2.08,0.9-2.84c0.56-0.72,1.3-1.32,2.2-1.78c0.86-0.45,1.85-0.79,2.93-1.03c1.05-0.23,2.12-0.4,3.19-0.5
				c1.06-0.1,2.09-0.16,3.06-0.17c0.96-0.01,1.77-0.02,2.42-0.02c0.73,0,1.54,0.04,2.41,0.13c0.59,0.06,1.14,0.13,1.66,0.23v-0.71
				c0.03-1.24-0.06-2.47-0.27-3.66c-0.2-1.16-0.56-2.22-1.09-3.14c-0.51-0.89-1.21-1.62-2.09-2.17c-0.87-0.54-2-0.82-3.37-0.82
				c-0.55,0-1.15,0.06-1.77,0.18c-0.6,0.12-1.17,0.31-1.69,0.58c-0.49,0.25-0.9,0.58-1.21,0.99c-0.28,0.37-0.42,0.84-0.42,1.44
				c0,0.52,0.08,0.93,0.23,1.18c0.15,0.26,0.35,0.45,0.59,0.58c0.27,0.15,0.56,0.25,0.86,0.29c0.38,0.06,0.74,0.12,1.09,0.2
				c0.41,0.08,0.75,0.21,1.02,0.37c0.23,0.14,0.62,0.48,0.62,1.2c0,0.63-0.3,1.01-0.55,1.21c-0.32,0.26-0.68,0.39-1.05,0.39
				c-0.75,0-1.56-0.11-2.4-0.32c-0.85-0.21-1.64-0.54-2.36-0.99c-0.73-0.45-1.35-1.02-1.83-1.69c-0.51-0.71-0.77-1.55-0.77-2.5
				c0-1.24,0.32-2.29,0.96-3.11c0.6-0.79,1.38-1.43,2.31-1.91c0.9-0.47,1.89-0.79,2.94-0.97c1.01-0.17,1.99-0.26,2.9-0.26
				c2.48,0,4.61,0.4,6.32,1.2c1.72,0.8,3.14,1.94,4.2,3.37c1.05,1.42,1.81,3.13,2.27,5.08c0.45,1.92,0.67,4.02,0.67,6.26
				c0,1.36-0.05,2.74-0.15,4.11c-0.08,1.1-0.17,2.2-0.28,3.29l2.43-0.32c0.01,0,0.02,0,0.03,0c0.41,0,0.75,0.11,1.09,0.33
				c0.42,0.27,0.65,0.68,0.65,1.14c0,0.94-0.52,1.55-1.43,1.68l-6.87,0.85C79.75,97.38,79.64,97.38,79.54,97.38z M73.97,86.82
				c-0.61,0-1.37,0.07-2.26,0.21c-0.87,0.13-1.71,0.36-2.51,0.68c-0.77,0.31-1.43,0.72-1.96,1.23c-0.47,0.45-0.69,0.99-0.69,1.66
				c0,0.56,0.13,0.99,0.4,1.31c0.3,0.36,0.7,0.66,1.17,0.87c0.5,0.23,1.06,0.38,1.66,0.46c0.63,0.08,1.23,0.12,1.76,0.12
				c1.22,0,2.47-0.15,3.71-0.45c1.1-0.26,2.09-0.75,2.95-1.46l0.07-4.18c-0.61-0.15-1.24-0.26-1.88-0.32
				C75.58,86.86,74.76,86.82,73.97,86.82z"/>
			<path class="st1" d="M70.92,70.99c2.4,0,4.42,0.38,6.06,1.14c1.64,0.76,2.96,1.82,3.96,3.18c1,1.36,1.72,2.97,2.16,4.85
				c0.44,1.88,0.66,3.92,0.66,6.12c0,1.35-0.05,2.71-0.15,4.06c-0.1,1.35-0.22,2.71-0.36,4.07l3.22-0.42c0.23,0,0.46,0.08,0.7,0.23
				c0.24,0.15,0.36,0.36,0.36,0.61c0,0.62-0.3,0.97-0.89,1.06l-6.86,0.85c-0.08,0.01-0.16,0.02-0.23,0.02
				c-0.25,0-0.43-0.08-0.56-0.23c-0.16-0.2-0.25-0.44-0.27-0.72c-0.03-0.28-0.03-0.58,0-0.89c0.03-0.31,0.04-0.56,0.04-0.76
				c-0.45,0.25-0.99,0.49-1.63,0.72c-0.63,0.23-1.28,0.42-1.95,0.59c-0.66,0.17-1.32,0.3-1.97,0.38c-0.65,0.08-1.23,0.13-1.74,0.13
				c-0.96,0-2.09-0.06-3.39-0.19c-1.3-0.13-2.53-0.4-3.7-0.8c-1.17-0.41-2.17-1.01-2.99-1.8c-0.82-0.79-1.23-1.85-1.23-3.18
				c0-0.99,0.25-1.81,0.76-2.46c0.51-0.65,1.17-1.19,1.99-1.61c0.82-0.42,1.74-0.75,2.77-0.97c1.03-0.23,2.07-0.39,3.11-0.49
				c1.04-0.1,2.05-0.15,3.01-0.17c0.96-0.01,1.76-0.02,2.41-0.02c0.71,0,1.49,0.04,2.35,0.13c0.86,0.08,1.64,0.21,2.35,0.38v-1.48
				c0.03-1.27-0.06-2.53-0.28-3.77c-0.21-1.24-0.6-2.36-1.16-3.35c-0.57-0.99-1.33-1.78-2.31-2.39c-0.97-0.61-2.21-0.91-3.7-0.91
				c-0.59,0-1.22,0.06-1.88,0.19c-0.66,0.13-1.28,0.34-1.86,0.64c-0.58,0.3-1.05,0.68-1.42,1.16c-0.37,0.48-0.55,1.09-0.55,1.82
				c0,0.65,0.11,1.15,0.32,1.5c0.21,0.35,0.49,0.62,0.83,0.8c0.34,0.18,0.69,0.3,1.06,0.36c0.37,0.06,0.72,0.12,1.06,0.19
				c0.34,0.07,0.61,0.17,0.83,0.3c0.21,0.13,0.32,0.35,0.32,0.66c0,0.31-0.11,0.55-0.32,0.72c-0.21,0.17-0.43,0.25-0.66,0.25
				c-0.71,0-1.45-0.1-2.24-0.3c-0.79-0.2-1.52-0.5-2.18-0.91c-0.66-0.41-1.21-0.92-1.65-1.52c-0.44-0.61-0.66-1.32-0.66-2.14
				c0-1.1,0.27-2.01,0.83-2.73c0.55-0.72,1.25-1.3,2.1-1.74c0.85-0.44,1.76-0.74,2.75-0.91C69.11,71.08,70.04,70.99,70.92,70.99
				 M71.55,93.98c1.27,0,2.55-0.15,3.85-0.47c1.3-0.31,2.44-0.9,3.43-1.78l0.08-4.95c-0.79-0.23-1.61-0.38-2.46-0.47
				c-0.85-0.08-1.68-0.13-2.5-0.13c-0.65,0-1.43,0.07-2.35,0.21c-0.92,0.14-1.8,0.38-2.65,0.72c-0.85,0.34-1.57,0.79-2.16,1.35
				c-0.59,0.57-0.89,1.27-0.89,2.12c0,0.71,0.18,1.28,0.55,1.71c0.37,0.44,0.83,0.78,1.4,1.04c0.56,0.25,1.18,0.42,1.84,0.51
				C70.37,93.94,70.99,93.98,71.55,93.98 M70.92,69.74c-0.94,0-1.95,0.09-3.01,0.27c-1.11,0.19-2.16,0.54-3.12,1.03
				c-1.01,0.52-1.86,1.23-2.52,2.09c-0.72,0.94-1.08,2.11-1.08,3.49c0,1.09,0.3,2.05,0.89,2.87c0.53,0.74,1.21,1.36,2.01,1.86
				c0.77,0.48,1.63,0.83,2.54,1.06c0.89,0.22,1.74,0.33,2.55,0.33c0.51,0,1.01-0.18,1.44-0.53c0.51-0.4,0.79-1.01,0.79-1.7
				c0-0.75-0.34-1.38-0.93-1.73c-0.34-0.2-0.73-0.35-1.21-0.45c-0.36-0.07-0.74-0.14-1.13-0.2c-0.22-0.03-0.44-0.11-0.65-0.22
				c-0.14-0.08-0.25-0.19-0.35-0.34c-0.03-0.06-0.14-0.28-0.14-0.86c0-0.45,0.1-0.8,0.29-1.06c0.25-0.33,0.58-0.6,0.99-0.81
				c0.47-0.24,0.98-0.42,1.53-0.52c0.58-0.11,1.14-0.17,1.65-0.17c1.25,0,2.27,0.24,3.04,0.72c0.8,0.5,1.42,1.14,1.88,1.95
				c0.49,0.86,0.83,1.84,1.02,2.93c0.2,1.15,0.28,2.34,0.26,3.52c-0.31-0.05-0.64-0.08-0.97-0.12c-0.89-0.09-1.73-0.13-2.47-0.13
				c-0.65,0-1.47,0.01-2.43,0.02c-0.99,0.02-2.04,0.07-3.11,0.17c-1.1,0.1-2.19,0.28-3.26,0.51c-1.13,0.25-2.17,0.61-3.08,1.08
				c-0.98,0.5-1.78,1.16-2.4,1.95c-0.68,0.87-1.03,1.96-1.03,3.23c0,1.68,0.54,3.05,1.61,4.08c0.94,0.91,2.1,1.61,3.44,2.08
				c1.26,0.44,2.61,0.73,4,0.87c1.33,0.13,2.51,0.2,3.51,0.2c0.56,0,1.18-0.05,1.9-0.14c0.7-0.09,1.41-0.23,2.12-0.41
				c0.68-0.17,1.35-0.38,1.99-0.6c0.07,0.46,0.24,0.87,0.52,1.22c0.36,0.46,0.91,0.71,1.54,0.71c0.13,0,0.27-0.01,0.42-0.03
				l6.82-0.84c1.24-0.18,1.99-1.06,1.99-2.31c0-0.68-0.34-1.29-0.93-1.67c-0.45-0.29-0.91-0.43-1.38-0.43h-0.08l-0.08,0.01
				l-1.65,0.22c0.08-0.84,0.15-1.68,0.21-2.52c0.1-1.39,0.15-2.78,0.15-4.16c0-2.28-0.23-4.44-0.69-6.4
				c-0.48-2.04-1.27-3.82-2.37-5.31c-1.12-1.52-2.62-2.72-4.44-3.57C75.71,70.16,73.49,69.74,70.92,69.74L70.92,69.74z M71.55,92.73
				c-0.51,0-1.08-0.04-1.68-0.12c-0.54-0.07-1.04-0.21-1.49-0.41c-0.39-0.18-0.7-0.41-0.95-0.7c-0.17-0.21-0.26-0.5-0.26-0.91
				c0-0.51,0.15-0.88,0.5-1.21c0.47-0.45,1.06-0.82,1.76-1.1c0.75-0.3,1.55-0.52,2.37-0.64c0.85-0.13,1.58-0.2,2.16-0.2
				c0.77,0,1.57,0.04,2.37,0.12c0.44,0.04,0.88,0.11,1.31,0.2l-0.06,3.37c-0.73,0.56-1.55,0.94-2.48,1.16
				C73.92,92.58,72.72,92.73,71.55,92.73L71.55,92.73z"/>
		</g>
		<g>
			<path class="st2" d="M93.74,114.39c-1.37,0-2.77-0.16-4.18-0.48c-1.43-0.33-2.74-0.86-3.9-1.58c-1.17-0.74-2.15-1.7-2.9-2.86
				c-0.77-1.19-1.16-2.64-1.16-4.3c0-0.95,0.2-1.81,0.6-2.56c0.39-0.74,0.92-1.37,1.57-1.86c0.63-0.48,1.36-0.85,2.15-1.11
				c0.79-0.26,1.61-0.39,2.44-0.39c0.66,0,1.32,0.17,1.96,0.49c0.6,0.31,1.15,0.71,1.64,1.19c0.49,0.49,0.88,1.04,1.18,1.65
				c0.31,0.63,0.47,1.28,0.47,1.91c0,0.43-0.17,0.81-0.5,1.12c-0.32,0.29-0.7,0.44-1.11,0.44c-0.62,0-1.11-0.33-1.38-0.94
				c-0.17-0.38-0.36-0.79-0.57-1.24c-0.19-0.4-0.43-0.77-0.73-1.1c-0.21-0.24-0.6-0.36-1.14-0.36c-0.82,0-1.47,0.26-1.99,0.79
				c-0.52,0.53-0.77,1.18-0.77,1.97c0,0.96,0.22,1.78,0.69,2.5c0.48,0.75,1.09,1.39,1.83,1.92c0.74,0.54,1.58,0.95,2.5,1.22
				c0.93,0.28,1.83,0.42,2.7,0.42c1.81,0,3.35-0.43,4.58-1.27c1.26-0.86,2.28-1.97,3.05-3.31c0.78-1.36,1.36-2.88,1.71-4.52
				c0.36-1.66,0.54-3.29,0.54-4.84c0-2.23-0.01-4.42-0.02-6.58c-0.01-1.31-0.02-2.63-0.05-3.96c-0.05,0.08-0.09,0.16-0.14,0.24
				c-0.52,0.86-1.13,1.64-1.81,2.32c-0.7,0.7-1.5,1.26-2.4,1.69c-0.91,0.43-1.94,0.65-3.04,0.65c-0.99,0-1.9-0.18-2.73-0.54
				c-0.81-0.35-1.58-0.87-2.28-1.54c-0.85-0.73-1.58-1.69-2.14-2.82c-0.54-1.1-0.97-2.27-1.27-3.49c-0.3-1.21-0.52-2.45-0.63-3.67
				c-0.11-1.21-0.17-2.35-0.17-3.38c0-1.96,0.06-3.96,0.19-5.93c0.11-1.73,0.26-3.5,0.45-5.27c0,0-3.26,0.31-3.27,0.31
				c-0.45,0-0.82-0.13-1.14-0.39c-0.36-0.29-0.55-0.68-0.55-1.12c0-0.46,0.13-0.84,0.38-1.14c0.28-0.33,0.66-0.5,1.1-0.5
				c0,0,8.38-0.72,8.38-0.72c0.54,0,0.96,0.19,1.28,0.55c0.3,0.35,0.45,0.76,0.45,1.22c0,0.82-0.07,1.69-0.22,2.6
				c-0.14,0.85-0.25,1.69-0.33,2.5c-0.23,2.28-0.45,4.59-0.68,6.92c-0.22,2.29-0.34,4.6-0.34,6.86c0,0.58,0.06,1.27,0.18,2.04
				c0.12,0.75,0.33,1.47,0.61,2.14c0.28,0.64,0.65,1.19,1.13,1.63c0.42,0.4,0.94,0.59,1.6,0.59c1.02,0,1.85-0.35,2.55-1.08
				c0.76-0.79,1.4-1.82,1.9-3.06c0.52-1.28,0.93-2.75,1.24-4.35c0.31-1.62,0.54-3.24,0.69-4.81c0.15-1.59,0.25-3.08,0.29-4.42
				c0.04-1.38,0.06-2.46,0.06-3.24c0-0.77-0.03-1.54-0.08-2.28c-0.06-0.77-0.09-1.57-0.09-2.38c0-0.58,0.26-1.06,0.74-1.36
				c0.36-0.22,0.78-0.38,1.24-0.48c0.43-0.09,0.87-0.15,1.32-0.18c0.41-0.03,0.74-0.05,0.99-0.08c0.07-0.01,0.18-0.02,0.28-0.02
				c0.39,0,0.72,0.14,0.97,0.41c0.25,0.27,0.42,0.63,0.5,1.05c0.09,0.52,0.13,1.08,0.12,1.67c-0.02,0.55-0.02,1.07-0.02,1.57
				l0.17,7.27c0.08,3.36,0.16,6.68,0.23,9.97c0.07,3.29,0.11,6.65,0.11,9.99c0,1.67-0.08,3.39-0.23,5.1
				c-0.16,1.72-0.44,3.39-0.82,4.96c-0.39,1.59-0.95,3.11-1.66,4.51c-0.72,1.43-1.65,2.68-2.75,3.73c-1.11,1.05-2.47,1.9-4.04,2.5
				C97.7,114.08,95.84,114.39,93.74,114.39z"/>
			<path class="st1" d="M106.69,61.36c0.21,0,0.38,0.07,0.51,0.21c0.17,0.18,0.28,0.43,0.34,0.74c0.08,0.48,0.12,1,0.11,1.55
				c-0.01,0.55-0.02,1.08-0.02,1.59l0.17,7.28c0.08,3.36,0.16,6.68,0.23,9.97c0.07,3.29,0.11,6.61,0.11,9.97
				c0,1.67-0.08,3.34-0.23,5.04c-0.16,1.69-0.42,3.32-0.81,4.87c-0.38,1.55-0.92,3.01-1.61,4.38c-0.69,1.37-1.57,2.56-2.63,3.56
				c-1.06,1-2.34,1.79-3.83,2.37c-1.5,0.58-3.26,0.87-5.29,0.87c-1.33,0-2.68-0.16-4.04-0.47c-1.37-0.31-2.6-0.81-3.71-1.5
				c-1.1-0.69-2-1.58-2.71-2.67c-0.71-1.09-1.06-2.41-1.06-3.96c0-0.85,0.18-1.6,0.53-2.27c0.35-0.66,0.82-1.21,1.4-1.65
				c0.58-0.44,1.23-0.78,1.97-1.02c0.73-0.24,1.48-0.36,2.24-0.36c0.56,0,1.12,0.14,1.67,0.42c0.55,0.28,1.04,0.64,1.48,1.08
				c0.44,0.44,0.79,0.93,1.06,1.48c0.27,0.55,0.4,1.09,0.4,1.63c0,0.25-0.1,0.47-0.3,0.66c-0.2,0.18-0.42,0.27-0.68,0.27
				c-0.37,0-0.64-0.19-0.8-0.57c-0.17-0.38-0.36-0.8-0.57-1.25c-0.21-0.45-0.49-0.87-0.83-1.25c-0.34-0.38-0.88-0.57-1.61-0.57
				c-0.99,0-1.8,0.32-2.44,0.97c-0.63,0.65-0.95,1.45-0.95,2.41c0,1.07,0.26,2.02,0.78,2.84c0.52,0.82,1.19,1.52,1.99,2.1
				c0.8,0.58,1.7,1.02,2.69,1.31c0.99,0.3,1.95,0.44,2.88,0.44c1.95,0,3.59-0.46,4.93-1.38c1.34-0.92,2.42-2.09,3.24-3.52
				c0.82-1.42,1.41-2.99,1.78-4.7c0.37-1.71,0.55-3.37,0.55-4.98c0-2.23-0.01-4.42-0.02-6.58c-0.01-2.16-0.05-4.34-0.11-6.54
				c-0.34,0.85-0.76,1.68-1.25,2.5c-0.49,0.82-1.07,1.55-1.71,2.2c-0.65,0.65-1.39,1.17-2.22,1.57c-0.83,0.4-1.76,0.59-2.77,0.59
				c-0.9,0-1.73-0.16-2.48-0.49c-0.75-0.32-1.45-0.8-2.1-1.42c-0.82-0.71-1.49-1.59-2.01-2.65c-0.52-1.06-0.93-2.18-1.23-3.37
				c-0.3-1.19-0.5-2.38-0.61-3.58c-0.11-1.2-0.17-2.31-0.17-3.32c0-1.95,0.06-3.91,0.19-5.89c0.13-1.98,0.3-3.98,0.53-6.01
				l-4.02,0.38c-0.25,0-0.49-0.08-0.7-0.25c-0.21-0.17-0.32-0.38-0.32-0.63c0-0.31,0.08-0.56,0.23-0.74
				c0.16-0.18,0.36-0.27,0.61-0.27l8.43-0.72c0.31,0,0.56,0.11,0.76,0.34c0.2,0.23,0.3,0.49,0.3,0.81c0,0.79-0.07,1.62-0.21,2.5
				c-0.14,0.88-0.25,1.72-0.34,2.54c-0.23,2.29-0.45,4.59-0.68,6.92c-0.23,2.33-0.34,4.64-0.34,6.92c0,0.62,0.06,1.33,0.19,2.14
				c0.13,0.8,0.35,1.57,0.66,2.29c0.31,0.72,0.73,1.33,1.27,1.84c0.54,0.51,1.21,0.76,2.03,0.76c1.19,0,2.19-0.42,3.01-1.27
				c0.82-0.85,1.5-1.93,2.03-3.26c0.54-1.33,0.96-2.82,1.27-4.47c0.31-1.65,0.54-3.27,0.7-4.87c0.15-1.59,0.25-3.08,0.3-4.47
				c0.04-1.38,0.06-2.47,0.06-3.26s-0.03-1.57-0.08-2.33c-0.06-0.76-0.08-1.54-0.08-2.33c0-0.37,0.15-0.64,0.44-0.83
				c0.3-0.18,0.64-0.32,1.04-0.4c0.4-0.08,0.8-0.14,1.23-0.17c0.42-0.03,0.76-0.06,1.02-0.08
				C106.56,61.37,106.63,61.36,106.69,61.36 M106.69,60.1c-0.12,0-0.25,0.01-0.38,0.03c-0.24,0.03-0.54,0.05-0.92,0.08
				c-0.49,0.03-0.96,0.1-1.41,0.19c-0.53,0.11-1.01,0.3-1.43,0.56c-0.67,0.42-1.04,1.09-1.04,1.9c0,0.83,0.03,1.64,0.09,2.42
				c0.05,0.73,0.08,1.48,0.08,2.24c0,0.79-0.02,1.87-0.06,3.22c-0.04,1.34-0.14,2.81-0.29,4.39c-0.15,1.55-0.38,3.16-0.68,4.76
				c-0.29,1.56-0.7,2.99-1.2,4.23c-0.47,1.17-1.07,2.13-1.77,2.86c-0.59,0.61-1.25,0.89-2.1,0.89c-0.5,0-0.87-0.13-1.17-0.42
				c-0.41-0.39-0.74-0.87-0.98-1.43c-0.27-0.62-0.46-1.29-0.57-1.99c-0.12-0.74-0.17-1.39-0.17-1.94c0-2.24,0.11-4.53,0.33-6.8
				c0.23-2.33,0.45-4.64,0.68-6.92c0.08-0.8,0.19-1.63,0.33-2.46c0.15-0.94,0.23-1.84,0.23-2.7c0-0.61-0.21-1.17-0.6-1.63
				c-0.44-0.5-1.04-0.77-1.71-0.77h-0.05l-0.05,0l-8.38,0.72c-0.59,0.02-1.13,0.27-1.51,0.72c-0.25,0.29-0.53,0.79-0.53,1.56
				c0,0.63,0.28,1.21,0.79,1.61c0.44,0.35,0.95,0.53,1.49,0.53h0.06l0.06-0.01l2.49-0.24c-0.15,1.53-0.28,3.05-0.37,4.54
				c-0.13,1.99-0.19,3.99-0.19,5.97c0,1.05,0.06,2.21,0.17,3.44c0.12,1.26,0.34,2.52,0.65,3.77c0.32,1.27,0.76,2.48,1.32,3.62
				c0.59,1.2,1.36,2.21,2.29,3.02c0.75,0.71,1.57,1.26,2.44,1.64c0.9,0.39,1.9,0.59,2.98,0.59c1.2,0,2.32-0.24,3.31-0.71
				c0.96-0.45,1.82-1.06,2.57-1.81c0.32-0.32,0.62-0.66,0.91-1.01c0.01,0.66,0.01,1.32,0.02,1.97c0.01,2.16,0.02,4.35,0.02,6.58
				c0,1.51-0.18,3.1-0.52,4.71c-0.34,1.57-0.89,3.03-1.64,4.34c-0.72,1.25-1.68,2.3-2.86,3.1c-1.12,0.77-2.54,1.16-4.22,1.16
				c-0.8,0-1.65-0.13-2.52-0.39c-0.85-0.26-1.63-0.64-2.31-1.13c-0.67-0.48-1.23-1.07-1.67-1.75c-0.39-0.62-0.59-1.33-0.59-2.16
				c0-0.63,0.19-1.12,0.59-1.53c0.4-0.41,0.89-0.6,1.54-0.6c0.4,0,0.61,0.08,0.67,0.15c0.26,0.29,0.47,0.61,0.63,0.95
				c0.21,0.44,0.39,0.85,0.56,1.22c0.37,0.84,1.08,1.32,1.95,1.32c0.57,0,1.1-0.21,1.53-0.61c0.46-0.43,0.7-0.97,0.7-1.58
				c0-0.73-0.18-1.46-0.53-2.18c-0.33-0.67-0.77-1.29-1.3-1.82c-0.53-0.53-1.14-0.97-1.8-1.31c-0.73-0.37-1.48-0.56-2.24-0.56
				c-0.89,0-1.78,0.14-2.64,0.42c-0.86,0.28-1.65,0.69-2.34,1.21c-0.72,0.54-1.31,1.24-1.75,2.06c-0.45,0.85-0.68,1.81-0.68,2.86
				c0,1.79,0.42,3.35,1.26,4.64c0.8,1.24,1.85,2.26,3.1,3.05c1.21,0.76,2.59,1.32,4.1,1.66c1.45,0.33,2.91,0.5,4.32,0.5
				c2.18,0,4.11-0.32,5.75-0.95c1.64-0.63,3.07-1.52,4.24-2.63c1.16-1.09,2.13-2.41,2.88-3.9c0.73-1.45,1.31-3.01,1.71-4.65
				c0.39-1.6,0.67-3.3,0.84-5.05c0.16-1.73,0.24-3.46,0.24-5.15c0-3.34-0.04-6.71-0.11-10c-0.07-3.29-0.15-6.61-0.23-9.98
				l-0.17-7.28c0-0.47,0.01-0.99,0.02-1.53c0.02-0.63-0.03-1.24-0.12-1.8c-0.1-0.56-0.32-1.01-0.65-1.37
				C107.76,60.32,107.25,60.1,106.69,60.1L106.69,60.1z"/>
		</g>
		<g>
			<path class="st2" d="M135.58,114.64c-0.38,0-0.74-0.14-1.04-0.42c-0.31-0.29-0.48-0.65-0.48-1.05l-8.53-67.86l-3.66-0.41
				c-0.46-0.1-0.78-0.29-1.02-0.58c-0.25-0.3-0.38-0.66-0.38-1.06c0-0.41,0.15-0.79,0.44-1.1c0.26-0.28,0.59-0.43,0.95-0.43
				c0.07,0,0.15,0.01,0.23,0.02l0.09,0l15.79,1.74c0.47,0.1,0.79,0.31,1.04,0.62c0.24,0.31,0.37,0.67,0.37,1.07
				c0,0.42-0.16,0.8-0.46,1.1c-0.3,0.3-0.68,0.46-1.1,0.46c-0.91,0-1.92-0.1-3.01-0.29c-0.73-0.13-1.42-0.23-2.06-0.31l5.76,42.39
				l10.21-55.46c0.1-0.41,0.3-0.71,0.6-0.94c0.29-0.23,0.63-0.34,0.99-0.34c0.39,0,0.75,0.15,1.04,0.44
				c0.25,0.25,0.42,0.55,0.5,0.88l8.87,58.6l8.67-44.1c-0.81,0.09-1.68,0.2-2.61,0.33c-1.29,0.17-2.46,0.26-3.47,0.26
				c-0.41,0-0.8-0.15-1.11-0.44c-0.32-0.3-0.5-0.69-0.5-1.12c0-0.44,0.15-0.83,0.42-1.12c0.29-0.31,0.67-0.48,1.1-0.48l10.73-1.11
				l-0.16-5l-4.6,0.66c-0.07,0.02-0.18,0.03-0.29,0.03c-0.31,0-0.6-0.09-0.88-0.27c-0.42-0.27-0.65-0.68-0.65-1.14
				c0-0.34,0.07-0.67,0.2-0.97c0.13-0.29,0.42-0.67,1.07-0.79l10.7-1.53c0.09-0.02,0.2-0.03,0.3-0.03c0.37,0,0.7,0.12,0.99,0.35
				c0.37,0.3,0.57,0.73,0.57,1.23l-0.82,35.3c0.44-0.81,0.97-1.55,1.57-2.21c0.66-0.72,1.41-1.3,2.25-1.74
				c0.86-0.46,1.85-0.69,2.94-0.69c1.66,0,3.06,0.33,4.17,0.97c1.1,0.64,1.99,1.51,2.65,2.58c0.64,1.05,1.1,2.25,1.35,3.58
				c0.25,1.29,0.37,2.63,0.37,3.99c0,2.38-0.12,4.8-0.36,7.2c-0.21,2.1-0.4,4.25-0.56,6.4c0,0,2.14-0.25,2.15-0.25
				c0.44,0,0.79,0.11,1.13,0.33c0.42,0.27,0.65,0.68,0.65,1.14c0,0.4-0.09,0.75-0.28,1.06c-0.14,0.23-0.48,0.62-1.19,0.62
				l-10.34,1.22c-0.05,0.01-0.16,0.03-0.27,0.03c-0.3,0-0.6-0.09-0.89-0.26c-0.44-0.27-0.68-0.7-0.68-1.19
				c0-0.96,0.52-1.59,1.43-1.72l2.32-0.24c0.1-2.64,0.19-5.25,0.25-7.83c0.07-2.75,0.11-5.55,0.11-8.33c0-0.33-0.03-0.86-0.08-1.58
				c-0.05-0.71-0.18-1.42-0.36-2.11c-0.18-0.67-0.43-1.28-0.74-1.79c-0.29-0.48-0.59-0.54-0.82-0.54c-0.87,0-1.61,0.28-2.28,0.86
				c-0.71,0.62-1.34,1.45-1.87,2.45c-0.54,1.03-1,2.2-1.37,3.5c-0.37,1.3-0.67,2.63-0.9,3.94c-0.22,1.32-0.39,2.57-0.5,3.72
				c-0.11,1.16-0.17,2.11-0.17,2.82l-0.07,3.51l3.28-0.28c0.02-0.01,0.13-0.02,0.23-0.02c0.33,0,0.65,0.12,0.94,0.35
				c0.47,0.39,0.57,0.84,0.57,1.15c0,0.39-0.11,0.74-0.33,1.04c-0.24,0.33-0.6,0.55-1.08,0.63c0,0-12.22,1.02-12.22,1.02
				c-0.43,0-0.79-0.12-1.11-0.35c-0.37-0.27-0.58-0.67-0.58-1.12c0-1.56,1.13-1.69,1.48-1.69l4.31-0.37l-1.43-44.42l-1.38,0.14
				l-12.74,65.09c-0.1,0.4-0.3,0.7-0.59,0.93c-0.3,0.23-0.63,0.34-1,0.34c-0.84,0-1.42-0.52-1.55-1.38l-9.31-54.75l-10.28,55.83
				c-0.1,0.4-0.3,0.7-0.59,0.93C136.32,114.53,135.97,114.64,135.58,114.64z"/>
			<path class="st1" d="M150.32,32.42c0.23,0,0.42,0.08,0.59,0.25s0.28,0.37,0.34,0.59l9.4,62.12l9.53-48.48
				c-1.04,0.11-2.2,0.25-3.47,0.42c-1.27,0.17-2.4,0.25-3.39,0.25c-0.25,0-0.48-0.09-0.68-0.27c-0.2-0.18-0.3-0.4-0.3-0.66
				c0-0.28,0.08-0.51,0.25-0.7c0.17-0.18,0.38-0.27,0.64-0.27l11.38-1.17l-0.2-6.28l-5.29,0.76c-0.07,0.02-0.14,0.02-0.2,0.02
				c-0.18,0-0.36-0.06-0.54-0.17c-0.24-0.15-0.36-0.36-0.36-0.61c0-0.25,0.05-0.49,0.15-0.72c0.1-0.23,0.3-0.37,0.61-0.42
				l10.67-1.52c0.07-0.01,0.14-0.02,0.21-0.02c0.22,0,0.42,0.07,0.59,0.21c0.23,0.18,0.34,0.43,0.34,0.74l-0.89,38.24
				c0.34-0.82,0.73-1.64,1.16-2.48c0.44-0.83,0.96-1.58,1.57-2.24c0.61-0.66,1.3-1.2,2.08-1.61c0.78-0.41,1.66-0.61,2.65-0.61
				c1.55,0,2.84,0.3,3.85,0.89c1.02,0.59,1.83,1.38,2.43,2.37c0.61,0.99,1.03,2.11,1.27,3.37c0.24,1.26,0.36,2.55,0.36,3.87
				c0,2.37-0.12,4.75-0.36,7.13c-0.24,2.39-0.44,4.78-0.61,7.18l2.88-0.34c0.25,0,0.5,0.08,0.74,0.23c0.24,0.16,0.36,0.36,0.36,0.61
				c0,0.28-0.06,0.53-0.19,0.74c-0.13,0.21-0.35,0.32-0.66,0.32l-10.42,1.23c-0.07,0.01-0.13,0.02-0.2,0.02
				c-0.19,0-0.37-0.06-0.56-0.17c-0.25-0.16-0.38-0.37-0.38-0.66c0-0.65,0.3-1.02,0.89-1.1l2.84-0.3c0.11-2.82,0.2-5.62,0.28-8.38
				c0.07-2.77,0.11-5.55,0.11-8.34c0-0.34-0.03-0.88-0.08-1.63c-0.06-0.75-0.18-1.49-0.38-2.22c-0.2-0.73-0.47-1.38-0.8-1.95
				s-0.79-0.85-1.35-0.85c-1.02,0-1.91,0.34-2.69,1.02c-0.78,0.68-1.45,1.55-2.01,2.63c-0.57,1.07-1.04,2.28-1.42,3.62
				c-0.38,1.34-0.68,2.68-0.91,4c-0.23,1.33-0.4,2.58-0.51,3.77c-0.11,1.19-0.17,2.15-0.17,2.88l-0.08,4.19l3.98-0.34
				c0.06-0.01,0.12-0.02,0.18-0.02c0.19,0,0.37,0.07,0.54,0.21c0.23,0.18,0.34,0.4,0.34,0.66c0,0.25-0.07,0.48-0.21,0.68
				c-0.14,0.2-0.37,0.32-0.68,0.38l-12.15,1.02c-0.25,0-0.49-0.08-0.7-0.23c-0.21-0.15-0.32-0.36-0.32-0.61
				c0-0.7,0.28-1.06,0.85-1.06l4.95-0.42l-1.47-45.68l-2.51,0.25l-12.83,65.55c-0.06,0.23-0.18,0.41-0.36,0.55
				c-0.18,0.14-0.39,0.21-0.61,0.21c-0.54,0-0.85-0.28-0.93-0.85l-9.91-58.26l-10.92,59.32c-0.06,0.23-0.18,0.41-0.36,0.55
				c-0.18,0.14-0.4,0.21-0.66,0.21c-0.23,0-0.43-0.08-0.61-0.25c-0.18-0.17-0.28-0.37-0.28-0.59l-8.6-68.43l-4.15-0.47
				c-0.25-0.06-0.46-0.18-0.61-0.36c-0.16-0.18-0.23-0.4-0.23-0.66c0-0.25,0.09-0.48,0.27-0.68c0.14-0.15,0.31-0.23,0.49-0.23
				c0.05,0,0.11,0.01,0.16,0.02h0.08l15.79,1.74c0.25,0.06,0.46,0.18,0.61,0.38c0.15,0.2,0.23,0.42,0.23,0.68
				c0,0.25-0.09,0.47-0.28,0.66c-0.18,0.18-0.4,0.28-0.66,0.28c-0.88,0-1.84-0.09-2.9-0.28c-1.06-0.18-2.03-0.32-2.9-0.4l6.39,47.09
				l10.92-59.32c0.06-0.23,0.18-0.41,0.36-0.55C149.88,32.49,150.09,32.42,150.32,32.42 M150.32,31.16c-0.5,0-0.98,0.16-1.38,0.47
				c-0.4,0.31-0.69,0.74-0.81,1.24l-0.01,0.04l-0.01,0.04l-9.5,51.59l-5.12-37.68c0.39,0.06,0.8,0.12,1.22,0.19
				c1.12,0.2,2.17,0.29,3.11,0.29c0.59,0,1.13-0.22,1.55-0.65c0.42-0.42,0.64-0.95,0.64-1.54c0-0.53-0.17-1.03-0.5-1.45
				c-0.34-0.42-0.79-0.71-1.33-0.83l-0.07-0.02l-0.07-0.01l-15.79-1.74l-0.07-0.01h-0.05c-0.09-0.01-0.18-0.02-0.27-0.02
				c-0.53,0-1.03,0.22-1.41,0.63c-0.4,0.44-0.61,0.97-0.61,1.54c0,0.55,0.18,1.06,0.53,1.47c0.33,0.39,0.78,0.66,1.3,0.77l0.07,0.01
				l0.07,0.01l3.17,0.36l8.46,67.39c0.03,0.54,0.26,1.04,0.68,1.42c0.41,0.38,0.92,0.59,1.46,0.59c0.53,0,1.02-0.16,1.42-0.47
				c0.41-0.31,0.69-0.74,0.81-1.24l0.01-0.04l0.01-0.04l9.64-52.34l8.72,51.27c0.17,1.16,1.01,1.89,2.17,1.89
				c0.5,0,0.98-0.16,1.38-0.47c0.41-0.32,0.69-0.74,0.81-1.24l0.01-0.03l0.01-0.03l12.65-64.63l0.24-0.02l1.39,43.15l-3.72,0.32
				c-0.96,0.03-2.04,0.64-2.04,2.31c0,0.66,0.3,1.23,0.83,1.63c0.42,0.31,0.92,0.48,1.44,0.48h0.05l0.05,0l12.15-1.02l0.06-0.01
				l0.06-0.01c0.26-0.05,0.49-0.13,0.68-0.22c0,0.03,0,0.06,0,0.08c0,0.72,0.36,1.35,0.98,1.73c0.39,0.24,0.8,0.36,1.22,0.36
				c0.13,0,0.27-0.01,0.4-0.04l10.31-1.22c0.71-0.03,1.31-0.36,1.65-0.93c0.25-0.41,0.37-0.88,0.37-1.39c0-0.68-0.33-1.28-0.93-1.67
				c-0.45-0.29-0.93-0.44-1.43-0.44h-0.07L196.83,91l-1.37,0.16c0.14-1.88,0.31-3.77,0.5-5.63c0.24-2.42,0.37-4.86,0.37-7.26
				c0-1.4-0.13-2.78-0.38-4.11c-0.27-1.4-0.75-2.67-1.43-3.79c-0.71-1.16-1.68-2.1-2.87-2.8c-1.21-0.7-2.71-1.06-4.49-1.06
				c-1.19,0-2.28,0.26-3.23,0.76c-0.9,0.48-1.71,1.11-2.42,1.87c-0.15,0.16-0.29,0.33-0.43,0.5l0.77-33.13
				c0-0.71-0.28-1.32-0.8-1.74c-0.4-0.32-0.88-0.49-1.39-0.49c-0.14,0-0.29,0.01-0.44,0.04l-10.62,1.52l-0.03,0l-0.03,0
				c-0.98,0.18-1.38,0.8-1.54,1.16c-0.17,0.39-0.25,0.8-0.25,1.22c0,0.68,0.34,1.29,0.93,1.67c0.38,0.25,0.79,0.37,1.22,0.37
				c0.14,0,0.28-0.01,0.42-0.04l3.87-0.56l0.12,3.71l-10.16,1.05c-0.57,0.02-1.09,0.26-1.48,0.68c-0.39,0.42-0.59,0.96-0.59,1.55
				c0,0.6,0.25,1.16,0.7,1.58c0.43,0.4,0.96,0.61,1.53,0.61c1.04,0,2.23-0.09,3.55-0.27c0.6-0.08,1.19-0.16,1.74-0.22l-7.8,39.7
				l-8.32-54.97l-0.01-0.06l-0.01-0.06c-0.11-0.45-0.34-0.84-0.67-1.17C151.39,31.38,150.88,31.16,150.32,31.16L150.32,31.16z
				 M180.65,90.54l0.06-2.8c0-0.72,0.06-1.64,0.16-2.79c0.11-1.15,0.28-2.39,0.5-3.68c0.22-1.28,0.51-2.58,0.88-3.87
				c0.36-1.25,0.8-2.39,1.32-3.38c0.49-0.93,1.07-1.69,1.73-2.26c0.54-0.48,1.15-0.71,1.86-0.71c0.06,0,0.14,0,0.28,0.24
				c0.28,0.46,0.5,1.01,0.67,1.63c0.18,0.65,0.29,1.32,0.34,1.99c0.05,0.71,0.08,1.23,0.08,1.53c0,2.75-0.04,5.55-0.11,8.31
				c-0.06,2.38-0.14,4.83-0.23,7.28l-1.75,0.18c-0.28,0.04-0.54,0.12-0.77,0.23c0-0.01,0-0.02,0-0.03c0-0.63-0.28-1.21-0.8-1.63
				c-0.4-0.32-0.86-0.49-1.34-0.49c-0.12,0-0.23,0.01-0.35,0.03L180.65,90.54L180.65,90.54z"/>
		</g>
		<g>
			<path class="st2" d="M233.39,98.25c-1.19,0-2.23-0.37-3.08-1.1c-0.8-0.69-1.46-1.58-1.97-2.64c-0.5-1.02-0.89-2.19-1.17-3.48
				c-0.27-1.25-0.47-2.52-0.6-3.77c-0.13-1.24-0.21-2.42-0.24-3.5c-0.03-1.08-0.04-1.95-0.04-2.6c0-5.25,0.08-10.54,0.23-15.73
				c0.15-4.98,0.29-9.97,0.42-14.98l-4.4,0.54c-0.03,0.01-0.15,0.03-0.26,0.03c-0.29,0-0.58-0.09-0.85-0.28
				c-0.39-0.27-0.61-0.69-0.61-1.17c0-0.96,0.5-1.59,1.38-1.72l4.86-0.65l0.16-5.27l0.03-0.09c0.07-0.22,0.17-0.43,0.3-0.63
				c0.17-0.27,0.44-0.48,0.8-0.61l1.7-0.67c0.36-0.14,0.7-0.27,1.01-0.39c0.41-0.15,0.65-0.21,0.85-0.21c1,0,1.6,0.63,1.6,1.69
				c0,0.98-0.03,2.01-0.08,3.06l-0.13,2.37l6.54-0.76c0.03-0.01,0.14-0.03,0.25-0.03c0.29,0,0.58,0.09,0.85,0.28
				c0.4,0.28,0.61,0.68,0.61,1.13c0,0.36-0.09,0.71-0.27,1.03c-0.15,0.27-0.46,0.62-1.09,0.73l-7.05,0.87l-0.74,16.34
				c-0.25,5.59-0.38,11.29-0.38,16.93c0,0.26-0.01,0.71-0.02,1.37c-0.01,0.62,0,1.35,0.04,2.16c0.04,0.81,0.1,1.65,0.19,2.53
				c0.08,0.85,0.21,1.63,0.4,2.33c0.18,0.67,0.41,1.22,0.68,1.64c0.25,0.38,0.5,0.43,0.7,0.43c0.5,0,0.9-0.11,1.18-0.33
				c0.32-0.25,0.57-0.57,0.76-0.95c0.2-0.41,0.33-0.87,0.41-1.36c0.08-0.53,0.12-1.04,0.12-1.52c0-0.41,0.15-0.78,0.42-1.08
				c0.29-0.31,0.67-0.48,1.09-0.48c0.78,0,1.16,0.34,1.34,0.63c0.21,0.33,0.31,0.72,0.31,1.18c0,0.83-0.12,1.76-0.36,2.75
				c-0.24,1-0.61,1.94-1.1,2.81c-0.51,0.89-1.15,1.64-1.92,2.22C235.46,97.94,234.49,98.25,233.39,98.25z"/>
			<path class="st1" d="M231.91,39.95c0.65,0,0.97,0.35,0.97,1.06c0,0.99-0.03,2-0.08,3.03c-0.06,1.03-0.11,2.07-0.17,3.11
				l7.28-0.85c0.06-0.01,0.12-0.02,0.18-0.02c0.17,0,0.33,0.06,0.5,0.17c0.22,0.16,0.34,0.36,0.34,0.61c0,0.25-0.06,0.49-0.19,0.72
				c-0.13,0.23-0.35,0.37-0.66,0.42l-7.54,0.93c-0.25,5.62-0.51,11.24-0.76,16.87c-0.26,5.63-0.38,11.28-0.38,16.96
				c0,0.25-0.01,0.71-0.02,1.35c-0.01,0.65,0,1.38,0.04,2.2c0.04,0.82,0.11,1.67,0.19,2.56c0.08,0.89,0.22,1.7,0.42,2.44
				c0.2,0.74,0.45,1.34,0.76,1.82c0.31,0.48,0.72,0.72,1.23,0.72c0.65,0,1.17-0.15,1.57-0.47c0.4-0.31,0.71-0.7,0.93-1.16
				c0.22-0.47,0.38-0.98,0.47-1.55s0.13-1.1,0.13-1.61c0-0.25,0.09-0.47,0.26-0.66c0.17-0.18,0.38-0.27,0.63-0.27
				c0.4,0,0.66,0.11,0.8,0.34s0.21,0.51,0.21,0.85c0,0.79-0.11,1.66-0.34,2.6c-0.23,0.95-0.57,1.83-1.04,2.65
				c-0.47,0.82-1.05,1.5-1.76,2.03c-0.71,0.54-1.54,0.8-2.5,0.8c-1.04,0-1.93-0.32-2.67-0.95c-0.73-0.64-1.34-1.45-1.82-2.43
				c-0.48-0.99-0.85-2.1-1.12-3.34c-0.27-1.24-0.47-2.48-0.59-3.71c-0.13-1.23-0.2-2.38-0.23-3.45c-0.03-1.07-0.04-1.93-0.04-2.58
				c0-5.25,0.08-10.49,0.23-15.71c0.15-5.22,0.3-10.46,0.44-15.71l-5.12,0.63c-0.06,0.02-0.12,0.02-0.18,0.02
				c-0.17,0-0.33-0.06-0.5-0.17c-0.23-0.15-0.34-0.37-0.34-0.66c0-0.65,0.28-1.02,0.85-1.1l5.38-0.72l0.17-5.72
				c0.06-0.17,0.13-0.33,0.23-0.49c0.1-0.15,0.26-0.27,0.49-0.36c0.14-0.06,0.37-0.15,0.7-0.28c0.32-0.13,0.66-0.26,1.02-0.4
				c0.35-0.14,0.68-0.27,1-0.38C231.59,40.01,231.8,39.95,231.91,39.95 M231.91,38.7c-0.27,0-0.58,0.07-1.06,0.24
				c-0.33,0.12-0.67,0.25-1.04,0.4c-0.35,0.14-0.68,0.27-1.01,0.4c-0.33,0.13-0.57,0.22-0.71,0.28c-0.46,0.17-0.83,0.46-1.08,0.85
				c-0.15,0.24-0.28,0.5-0.36,0.76l-0.06,0.18l-0.01,0.18l-0.14,4.65l-4.32,0.58c-1.2,0.18-1.94,1.08-1.94,2.35
				c0,0.7,0.31,1.3,0.89,1.69c0.38,0.26,0.78,0.39,1.21,0.39c0.13,0,0.27-0.01,0.4-0.04l3.61-0.45c-0.13,4.76-0.26,9.51-0.4,14.24
				c-0.16,5.2-0.23,10.5-0.23,15.75c0,0.67,0.01,1.55,0.04,2.62c0.03,1.09,0.11,2.28,0.24,3.55c0.13,1.28,0.34,2.57,0.61,3.84
				c0.29,1.34,0.7,2.56,1.22,3.63c0.55,1.13,1.27,2.09,2.13,2.83c0.97,0.84,2.14,1.26,3.49,1.26c1.24,0,2.33-0.36,3.26-1.06
				c0.84-0.64,1.54-1.45,2.09-2.41c0.52-0.92,0.92-1.92,1.17-2.98c0.25-1.04,0.37-2.01,0.37-2.89c0-0.58-0.14-1.08-0.4-1.51
				c-0.22-0.35-0.75-0.93-1.87-0.93c-0.61,0-1.15,0.23-1.56,0.68c-0.39,0.42-0.59,0.94-0.59,1.51c0,0.45-0.04,0.92-0.11,1.42
				c-0.07,0.43-0.18,0.83-0.35,1.19c-0.14,0.29-0.33,0.53-0.58,0.72c-0.17,0.13-0.43,0.2-0.79,0.2c-0.04,0-0.08,0-0.17-0.14
				c-0.24-0.37-0.44-0.86-0.61-1.47c-0.18-0.67-0.31-1.41-0.38-2.23c-0.08-0.84-0.14-1.69-0.19-2.51c-0.04-0.79-0.05-1.5-0.04-2.11
				c0.01-0.66,0.02-1.12,0.02-1.38c0-5.65,0.13-11.33,0.38-16.9l0.43-9.54l0.28-6.27l6.48-0.8l0.04,0l0.04-0.01
				c0.68-0.12,1.22-0.49,1.53-1.05c0.23-0.41,0.35-0.86,0.35-1.33c0-0.67-0.31-1.25-0.88-1.65c-0.39-0.26-0.79-0.4-1.22-0.4
				c-0.13,0-0.26,0.01-0.39,0.04l-5.74,0.67c0.03-0.54,0.06-1.08,0.09-1.62c0.06-1.06,0.09-2.1,0.09-3.1
				C234.14,39.61,233.27,38.7,231.91,38.7L231.91,38.7z"/>
		</g>
		<g>
			<path class="st2" d="M246.39,83.69c-0.43,0-0.81-0.17-1.12-0.49c-0.29-0.32-0.44-0.72-0.44-1.19c0-1.32,0.08-2.73,0.24-4.2
				c0.16-1.47,0.4-2.95,0.71-4.41c0.32-1.46,0.72-2.91,1.21-4.31c0.49-1.41,1.07-2.74,1.74-3.95c0.54-1,1.16-1.98,1.82-2.9
				l1.95-2.71c1.09-1.42,2.07-2.95,2.94-4.55c0.87-1.6,1.62-3.28,2.23-5.01c0.61-1.73,1.08-3.52,1.41-5.32
				c0.33-1.8,0.5-3.61,0.5-5.37c0-1.37-0.1-2.84-0.29-4.37c-0.19-1.52-0.51-3.03-0.93-4.47c-0.42-1.45-0.99-2.86-1.67-4.19
				c-0.68-1.31-1.51-2.48-2.48-3.47c-0.76-0.76-1.61-1.4-2.51-1.87c-0.86-0.46-1.85-0.69-2.92-0.69c-1.73,0-3.39,0.27-4.92,0.79
				c-1.53,0.52-2.89,1.29-4.05,2.28c-1.15,0.98-2.08,2.2-2.76,3.61c-0.68,1.4-1.02,3.02-1.02,4.81c0,0.8,0.09,1.62,0.26,2.45
				c0.17,0.8,0.46,1.54,0.85,2.2c0.39,0.64,0.89,1.16,1.5,1.56c0.59,0.38,1.33,0.58,2.22,0.58c1.07,0,2.02-0.22,2.83-0.67
				c0.77-0.42,1.33-1.14,1.7-2.22c0.06-0.17,0.09-0.33,0.09-0.49c0-0.32,0.06-0.63,0.17-0.92c0.09-0.34,0.23-0.64,0.41-0.88
				c0.17-0.23,0.51-0.5,1.16-0.5c0.65,0,1.01,0.31,1.21,0.57c0.24,0.32,0.35,0.67,0.35,1.03c0,1.14-0.23,2.17-0.68,3.08
				c-0.44,0.89-1.05,1.66-1.79,2.28c-0.73,0.61-1.59,1.09-2.55,1.41c-0.95,0.32-1.95,0.48-2.97,0.48c-1.44,0-2.68-0.32-3.69-0.94
				c-1-0.61-1.82-1.42-2.45-2.4c-0.61-0.96-1.07-2.06-1.35-3.27c-0.28-1.19-0.42-2.4-0.42-3.59c0-2.2,0.44-4.22,1.31-6.01
				c0.87-1.78,2.05-3.31,3.52-4.57c1.47-1.25,3.17-2.21,5.07-2.87c1.81-0.63,3.75-0.95,5.75-0.95l0.51,0c1.11,0,2.28,0.14,3.49,0.42
				c1.19,0.28,2.31,0.64,3.32,1.07c2.12,0.87,3.92,2.03,5.36,3.43c1.43,1.4,2.6,3,3.47,4.74c0.87,1.74,1.49,3.64,1.85,5.65
				c0.36,1.99,0.54,4.07,0.54,6.19c0,2.47-0.26,4.68-0.76,6.58c-0.5,1.89-1.19,3.62-2.03,5.14c-0.84,1.52-1.8,2.91-2.87,4.15
				c-1.04,1.21-2.12,2.41-3.21,3.58c-1.07,1.14-2.14,2.33-3.18,3.52c-1.01,1.17-1.93,2.46-2.72,3.84c-0.79,1.38-1.43,2.94-1.91,4.64
				c-0.48,1.7-0.72,3.7-0.72,5.95c0,0.94,0.05,1.86,0.15,2.75c0.1,0.92,0.19,1.84,0.28,2.74l0,0.23c0,0.37-0.12,0.7-0.34,1
				c-0.23,0.3-0.53,0.49-0.89,0.58c-0.38,0.09-0.75,0.18-1.15,0.28C247.25,83.63,246.81,83.69,246.39,83.69z"/>
			<path class="st1" d="M248.51,17.68c0.08,0,0.17,0,0.25,0h0.25c1.07,0,2.19,0.14,3.35,0.4c1.16,0.27,2.23,0.61,3.22,1.04
				c2.06,0.85,3.78,1.95,5.16,3.3c1.38,1.35,2.5,2.88,3.35,4.57c0.85,1.69,1.45,3.52,1.8,5.48c0.35,1.96,0.53,3.99,0.53,6.08
				c0,2.43-0.25,4.57-0.74,6.41c-0.49,1.85-1.15,3.52-1.97,5c-0.82,1.48-1.75,2.83-2.8,4.04c-1.04,1.21-2.11,2.4-3.2,3.56
				c-1.09,1.16-2.15,2.34-3.2,3.54c-1.04,1.2-1.98,2.51-2.79,3.94c-0.82,1.43-1.48,3.02-1.97,4.79c-0.49,1.76-0.74,3.8-0.74,6.12
				c0,0.96,0.05,1.9,0.15,2.82c0.1,0.92,0.19,1.83,0.27,2.73v0.17c0,0.23-0.07,0.43-0.21,0.61c-0.14,0.18-0.32,0.3-0.55,0.36
				c-0.37,0.08-0.75,0.18-1.14,0.27c-0.4,0.1-0.78,0.15-1.14,0.15c-0.25,0-0.47-0.1-0.66-0.3c-0.18-0.2-0.27-0.45-0.27-0.76
				c0-1.3,0.08-2.67,0.23-4.13c0.15-1.45,0.39-2.9,0.7-4.34c0.31-1.44,0.71-2.85,1.19-4.23c0.48-1.38,1.04-2.67,1.69-3.85
				c0.54-0.99,1.13-1.93,1.78-2.84s1.3-1.81,1.95-2.71c1.1-1.44,2.1-2.98,2.98-4.62c0.89-1.64,1.64-3.34,2.27-5.1
				c0.62-1.76,1.1-3.57,1.44-5.42c0.34-1.85,0.51-3.68,0.51-5.48c0-1.41-0.1-2.89-0.3-4.45c-0.2-1.55-0.51-3.08-0.95-4.57
				c-0.44-1.5-1.01-2.93-1.71-4.3c-0.71-1.37-1.57-2.58-2.58-3.62c-0.82-0.82-1.71-1.48-2.67-1.99s-2.03-0.76-3.22-0.76
				c-1.81,0-3.51,0.27-5.12,0.82c-1.61,0.55-3.03,1.35-4.26,2.39c-1.23,1.04-2.2,2.31-2.92,3.81c-0.72,1.5-1.08,3.19-1.08,5.08
				c0,0.85,0.09,1.71,0.27,2.58c0.18,0.88,0.49,1.67,0.93,2.39c0.44,0.72,1,1.31,1.69,1.76c0.69,0.45,1.55,0.68,2.56,0.68
				c1.19,0,2.23-0.25,3.13-0.74c0.9-0.49,1.57-1.35,1.99-2.56c0.08-0.23,0.13-0.46,0.13-0.7c0-0.24,0.04-0.47,0.13-0.7
				c0.08-0.31,0.19-0.55,0.32-0.72c0.13-0.17,0.34-0.25,0.66-0.25c0.31,0,0.54,0.11,0.7,0.32c0.15,0.21,0.23,0.43,0.23,0.66
				c0,1.04-0.21,1.98-0.61,2.79c-0.41,0.82-0.95,1.51-1.63,2.07c-0.68,0.57-1.46,1-2.35,1.29c-0.89,0.3-1.81,0.45-2.77,0.45
				c-1.33,0-2.45-0.28-3.37-0.85c-0.92-0.56-1.67-1.3-2.24-2.2c-0.58-0.9-1-1.93-1.27-3.07c-0.27-1.14-0.4-2.29-0.4-3.45
				c0-2.12,0.42-4.03,1.25-5.74c0.83-1.71,1.96-3.16,3.37-4.36c1.41-1.2,3.03-2.12,4.87-2.75
				C244.72,17.98,246.57,17.68,248.51,17.68 M248.51,16.42L248.51,16.42c-2.08,0-4.08,0.33-5.96,0.98
				c-1.97,0.68-3.75,1.68-5.27,2.98c-1.54,1.31-2.78,2.91-3.68,4.77c-0.91,1.88-1.38,3.99-1.38,6.29c0,1.24,0.15,2.5,0.44,3.74
				c0.3,1.28,0.78,2.44,1.44,3.46c0.68,1.06,1.57,1.93,2.64,2.59c1.11,0.69,2.47,1.03,4.02,1.03c1.09,0,2.16-0.17,3.17-0.51
				c1.03-0.34,1.96-0.86,2.76-1.52c0.81-0.67,1.46-1.51,1.95-2.48c0.5-0.99,0.75-2.12,0.75-3.36c0-0.49-0.16-0.97-0.48-1.4
				c-0.39-0.54-1-0.83-1.71-0.83c-0.95,0-1.45,0.48-1.66,0.76c-0.21,0.28-0.38,0.64-0.51,1.09c-0.12,0.35-0.19,0.71-0.19,1.08
				c0,0.09-0.02,0.17-0.05,0.26c-0.33,0.95-0.79,1.56-1.42,1.9c-0.72,0.4-1.55,0.59-2.53,0.59c-0.76,0-1.39-0.16-1.88-0.47
				c-0.54-0.35-0.96-0.79-1.31-1.36c-0.36-0.59-0.62-1.27-0.78-2c-0.16-0.79-0.25-1.57-0.25-2.32c0-1.69,0.32-3.22,0.96-4.54
				c0.64-1.33,1.51-2.47,2.6-3.4c1.1-0.94,2.4-1.66,3.85-2.16c1.47-0.5,3.06-0.76,4.72-0.76c0.99,0,1.85,0.2,2.63,0.62
				c0.84,0.45,1.64,1.04,2.37,1.77c0.91,0.94,1.71,2.06,2.36,3.31c0.66,1.29,1.21,2.66,1.63,4.08c0.42,1.42,0.72,2.89,0.91,4.38
				c0.19,1.5,0.29,2.94,0.29,4.29c0,1.72-0.16,3.49-0.49,5.26c-0.33,1.78-0.79,3.54-1.39,5.23c-0.6,1.7-1.33,3.35-2.18,4.92
				c-0.85,1.57-1.82,3.07-2.88,4.45l-1.97,2.74c-0.68,0.94-1.3,1.94-1.86,2.97c-0.68,1.24-1.28,2.6-1.78,4.04
				c-0.49,1.42-0.91,2.9-1.23,4.38c-0.32,1.48-0.56,2.98-0.72,4.47c-0.16,1.49-0.24,2.92-0.24,4.26c0,0.63,0.21,1.19,0.61,1.62
				c0.42,0.46,0.97,0.7,1.58,0.7c0.47,0,0.96-0.06,1.45-0.19c0.38-0.1,0.76-0.19,1.12-0.27c0.52-0.13,0.95-0.41,1.26-0.82
				c0.31-0.4,0.47-0.88,0.47-1.38v-0.17v-0.06l-0.01-0.06c-0.09-0.91-0.18-1.82-0.28-2.75c-0.09-0.87-0.14-1.77-0.14-2.68
				c0-2.19,0.23-4.13,0.69-5.78c0.46-1.66,1.08-3.17,1.85-4.5c0.77-1.35,1.67-2.6,2.65-3.74c1.03-1.18,2.09-2.36,3.17-3.5
				c1.09-1.17,2.18-2.38,3.23-3.6c1.09-1.27,2.08-2.7,2.94-4.26c0.86-1.57,1.56-3.34,2.08-5.28c0.52-1.95,0.78-4.22,0.78-6.74
				c0-2.15-0.19-4.27-0.55-6.3c-0.37-2.07-1.02-4.03-1.91-5.82c-0.91-1.81-2.11-3.46-3.59-4.91c-1.49-1.46-3.37-2.66-5.57-3.57
				c-1.03-0.44-2.18-0.81-3.41-1.1c-1.25-0.29-2.47-0.44-3.63-0.44h-0.25L248.51,16.42L248.51,16.42L248.51,16.42z"/>
		</g>
		<g>
			<path class="st2" d="M247.71,98c-0.81,0-1.52-0.22-2.12-0.65c-0.56-0.4-1.04-0.91-1.4-1.52c-0.35-0.58-0.63-1.23-0.81-1.92
				c-0.18-0.68-0.27-1.35-0.27-2c0-0.62,0.1-1.28,0.3-1.94c0.2-0.67,0.5-1.29,0.89-1.85c0.4-0.57,0.89-1.05,1.46-1.43
				c0.61-0.41,1.33-0.61,2.13-0.61c0.81,0,1.52,0.22,2.12,0.65c0.56,0.4,1.03,0.91,1.38,1.5c0.34,0.57,0.6,1.22,0.77,1.91
				c0.17,0.69,0.25,1.34,0.25,1.95c0,0.66-0.1,1.33-0.3,2c-0.2,0.68-0.49,1.31-0.86,1.86c-0.38,0.58-0.87,1.06-1.44,1.45
				C249.18,97.79,248.48,98,247.71,98z"/>
			<path class="st1" d="M247.87,86.7c0.68,0,1.26,0.18,1.76,0.53c0.49,0.35,0.9,0.79,1.21,1.31c0.31,0.52,0.54,1.1,0.7,1.74
				c0.15,0.64,0.23,1.24,0.23,1.8c0,0.59-0.09,1.2-0.27,1.82c-0.18,0.62-0.44,1.19-0.78,1.69s-0.76,0.93-1.27,1.27
				c-0.51,0.34-1.09,0.51-1.74,0.51c-0.68,0-1.26-0.18-1.76-0.53c-0.49-0.35-0.9-0.8-1.23-1.33c-0.32-0.54-0.57-1.12-0.74-1.76
				c-0.17-0.63-0.25-1.25-0.25-1.84c0-0.56,0.09-1.15,0.27-1.76c0.18-0.61,0.45-1.16,0.8-1.67c0.35-0.51,0.78-0.93,1.29-1.27
				C246.61,86.87,247.2,86.7,247.87,86.7 M247.87,85.44c-0.93,0-1.76,0.24-2.47,0.72c-0.64,0.42-1.18,0.96-1.63,1.6
				c-0.43,0.61-0.75,1.29-0.98,2.03c-0.22,0.72-0.33,1.43-0.33,2.12c0,0.7,0.1,1.43,0.3,2.17c0.2,0.74,0.49,1.45,0.88,2.08
				c0.41,0.68,0.94,1.25,1.57,1.71c0.71,0.51,1.55,0.76,2.49,0.76c0.9,0,1.72-0.24,2.43-0.72c0.64-0.43,1.19-0.97,1.62-1.62
				c0.41-0.61,0.72-1.29,0.94-2.03c0.22-0.73,0.33-1.46,0.33-2.18c0-0.66-0.09-1.37-0.27-2.1c-0.18-0.75-0.47-1.45-0.84-2.08
				c-0.4-0.67-0.93-1.24-1.56-1.7C249.65,85.7,248.82,85.44,247.87,85.44L247.87,85.44z"/>
		</g>
		<g>
			<path class="st2" d="M217.45,97.38c-0.56,0-0.88-0.26-1.05-0.47c-0.23-0.29-0.37-0.64-0.41-1.04c-0.02-0.22-0.03-0.45-0.02-0.68
				c-0.23,0.1-0.47,0.19-0.73,0.28c-0.64,0.23-1.32,0.44-2,0.61c-0.67,0.17-1.36,0.31-2.04,0.39c-0.68,0.09-1.29,0.13-1.82,0.13
				c-0.97,0-2.13-0.06-3.45-0.19c-1.34-0.13-2.64-0.41-3.85-0.84c-1.25-0.44-2.33-1.09-3.22-1.94c-0.94-0.91-1.42-2.13-1.42-3.63
				c0-1.12,0.3-2.08,0.89-2.84c0.57-0.72,1.3-1.32,2.2-1.78c0.86-0.45,1.85-0.79,2.93-1.03c1.05-0.23,2.12-0.4,3.19-0.5
				c1.06-0.1,2.09-0.16,3.06-0.17c0.96-0.01,1.77-0.02,2.42-0.02c0.73,0,1.54,0.04,2.41,0.13c0.58,0.06,1.14,0.13,1.66,0.23v-0.71
				c0.03-1.24-0.06-2.47-0.27-3.66c-0.2-1.16-0.56-2.21-1.09-3.14c-0.52-0.9-1.2-1.61-2.09-2.17c-0.87-0.54-2-0.82-3.37-0.82
				c-0.55,0-1.15,0.06-1.77,0.18c-0.61,0.12-1.18,0.31-1.7,0.58c-0.49,0.25-0.9,0.58-1.2,0.99c-0.29,0.37-0.42,0.84-0.42,1.44
				c0,0.52,0.08,0.93,0.23,1.18c0.15,0.26,0.34,0.45,0.58,0.58c0.27,0.15,0.56,0.25,0.86,0.29c0.38,0.06,0.74,0.12,1.09,0.2
				c0.41,0.08,0.75,0.21,1.02,0.37c0.23,0.14,0.62,0.48,0.62,1.2c0,0.63-0.3,1.01-0.55,1.21c-0.33,0.26-0.68,0.39-1.05,0.39
				c-0.75,0-1.56-0.11-2.4-0.32c-0.85-0.21-1.64-0.54-2.36-0.99c-0.73-0.45-1.35-1.02-1.83-1.69c-0.51-0.71-0.77-1.55-0.77-2.5
				c0-1.24,0.32-2.29,0.96-3.11c0.6-0.79,1.38-1.43,2.31-1.91c0.9-0.46,1.89-0.79,2.94-0.97c1.01-0.17,1.99-0.26,2.9-0.26
				c2.48,0,4.61,0.4,6.32,1.2c1.73,0.8,3.14,1.94,4.2,3.37c1.05,1.42,1.81,3.13,2.27,5.08c0.45,1.92,0.67,4.02,0.67,6.26
				c0,1.35-0.05,2.73-0.15,4.11c-0.08,1.1-0.17,2.2-0.28,3.29l2.43-0.32c0.01,0,0.02,0,0.03,0c0.41,0,0.75,0.11,1.09,0.33
				c0.42,0.27,0.65,0.68,0.65,1.14c0,0.94-0.52,1.55-1.43,1.68l-6.87,0.85C217.66,97.38,217.56,97.38,217.45,97.38z M211.88,86.82
				c-0.61,0-1.37,0.07-2.25,0.21c-0.87,0.13-1.71,0.36-2.51,0.68c-0.77,0.31-1.43,0.72-1.96,1.23c-0.47,0.45-0.7,0.99-0.7,1.66
				c0,0.56,0.13,0.99,0.4,1.31c0.3,0.36,0.7,0.66,1.17,0.87c0.5,0.23,1.06,0.38,1.67,0.46c0.63,0.08,1.23,0.12,1.76,0.12
				c1.22,0,2.46-0.15,3.71-0.45c1.1-0.26,2.09-0.75,2.95-1.46l0.07-4.18c-0.61-0.15-1.24-0.26-1.88-0.32
				C213.49,86.86,212.67,86.82,211.88,86.82z"/>
			<path class="st1" d="M208.83,70.99c2.4,0,4.42,0.38,6.06,1.14c1.64,0.76,2.96,1.82,3.96,3.18c1,1.36,1.72,2.97,2.16,4.85
				c0.44,1.88,0.66,3.92,0.66,6.12c0,1.35-0.05,2.71-0.15,4.06c-0.1,1.35-0.22,2.71-0.36,4.07l3.22-0.42c0.22,0,0.46,0.08,0.7,0.23
				c0.24,0.15,0.36,0.36,0.36,0.61c0,0.62-0.3,0.97-0.89,1.06l-6.86,0.85c-0.08,0.01-0.16,0.02-0.23,0.02
				c-0.25,0-0.43-0.08-0.55-0.23c-0.15-0.2-0.25-0.44-0.27-0.72c-0.03-0.28-0.03-0.58,0-0.89c0.03-0.31,0.04-0.56,0.04-0.76
				c-0.45,0.25-0.99,0.49-1.63,0.72c-0.63,0.23-1.29,0.42-1.95,0.59c-0.66,0.17-1.32,0.3-1.97,0.38c-0.65,0.08-1.23,0.13-1.74,0.13
				c-0.96,0-2.09-0.06-3.39-0.19c-1.3-0.13-2.53-0.4-3.7-0.8c-1.17-0.41-2.17-1.01-2.99-1.8c-0.82-0.79-1.23-1.85-1.23-3.18
				c0-0.99,0.25-1.81,0.76-2.46c0.51-0.65,1.17-1.19,1.99-1.61c0.82-0.42,1.74-0.75,2.77-0.97s2.07-0.39,3.11-0.49
				c1.05-0.1,2.05-0.15,3.01-0.17c0.96-0.01,1.76-0.02,2.41-0.02c0.71,0,1.49,0.04,2.35,0.13c0.86,0.08,1.64,0.21,2.35,0.38v-1.48
				c0.03-1.27-0.06-2.53-0.27-3.77c-0.21-1.24-0.6-2.36-1.16-3.35c-0.57-0.99-1.33-1.78-2.31-2.39c-0.97-0.61-2.21-0.91-3.71-0.91
				c-0.59,0-1.22,0.06-1.88,0.19c-0.66,0.13-1.29,0.34-1.86,0.64c-0.58,0.3-1.05,0.68-1.42,1.16c-0.37,0.48-0.55,1.09-0.55,1.82
				c0,0.65,0.11,1.15,0.32,1.5c0.21,0.35,0.49,0.62,0.82,0.8c0.34,0.18,0.69,0.3,1.06,0.36s0.72,0.12,1.06,0.19
				c0.34,0.07,0.61,0.17,0.82,0.3c0.21,0.13,0.32,0.35,0.32,0.66c0,0.31-0.11,0.55-0.32,0.72c-0.21,0.17-0.43,0.25-0.66,0.25
				c-0.71,0-1.46-0.1-2.25-0.3c-0.79-0.2-1.52-0.5-2.18-0.91c-0.66-0.41-1.21-0.92-1.65-1.52c-0.44-0.61-0.66-1.32-0.66-2.14
				c0-1.1,0.27-2.01,0.83-2.73c0.55-0.72,1.25-1.3,2.1-1.74c0.85-0.44,1.76-0.74,2.75-0.91C207.03,71.08,207.96,70.99,208.83,70.99
				 M209.47,93.98c1.27,0,2.55-0.15,3.85-0.47c1.3-0.31,2.44-0.9,3.43-1.78l0.08-4.95c-0.79-0.23-1.61-0.38-2.45-0.47
				c-0.85-0.08-1.68-0.13-2.5-0.13c-0.65,0-1.43,0.07-2.35,0.21c-0.92,0.14-1.8,0.38-2.65,0.72c-0.85,0.34-1.57,0.79-2.16,1.35
				c-0.59,0.57-0.89,1.27-0.89,2.12c0,0.71,0.18,1.28,0.55,1.71c0.37,0.44,0.83,0.78,1.4,1.04c0.56,0.25,1.18,0.42,1.84,0.51
				C208.29,93.94,208.9,93.98,209.47,93.98 M208.83,69.74c-0.94,0-1.95,0.09-3.01,0.27c-1.11,0.19-2.16,0.54-3.12,1.03
				c-1.01,0.52-1.86,1.23-2.52,2.09c-0.72,0.94-1.08,2.11-1.08,3.49c0,1.09,0.3,2.05,0.89,2.87c0.53,0.74,1.21,1.36,2.01,1.86
				c0.77,0.48,1.63,0.83,2.54,1.06c0.89,0.22,1.74,0.33,2.55,0.33c0.51,0,1.01-0.18,1.44-0.53c0.51-0.4,0.79-1.01,0.79-1.7
				c0-0.75-0.34-1.38-0.93-1.73c-0.34-0.2-0.73-0.35-1.21-0.45c-0.36-0.08-0.74-0.14-1.13-0.2c-0.23-0.03-0.44-0.11-0.65-0.22
				c-0.14-0.08-0.25-0.19-0.35-0.34c-0.03-0.06-0.14-0.28-0.14-0.86c0-0.45,0.1-0.8,0.29-1.06c0.26-0.34,0.58-0.6,0.99-0.81
				c0.47-0.24,0.98-0.41,1.53-0.52c0.58-0.11,1.14-0.17,1.65-0.17c1.25,0,2.27,0.24,3.04,0.72c0.8,0.5,1.42,1.14,1.88,1.95
				c0.49,0.86,0.83,1.84,1.02,2.93c0.2,1.15,0.28,2.34,0.26,3.52c-0.31-0.05-0.64-0.08-0.97-0.12c-0.89-0.09-1.73-0.13-2.47-0.13
				c-0.65,0-1.47,0.01-2.43,0.02c-0.99,0.02-2.03,0.07-3.11,0.17c-1.09,0.1-2.19,0.28-3.26,0.51c-1.13,0.25-2.17,0.61-3.08,1.09
				c-0.97,0.5-1.78,1.16-2.4,1.95c-0.68,0.87-1.03,1.96-1.03,3.23c0,1.68,0.54,3.05,1.61,4.08c0.94,0.91,2.1,1.61,3.44,2.08
				c1.26,0.44,2.61,0.73,4,0.87c1.33,0.13,2.51,0.2,3.51,0.2c0.56,0,1.2-0.05,1.9-0.14c0.7-0.09,1.41-0.23,2.12-0.41
				c0.68-0.17,1.35-0.38,1.99-0.6c0.07,0.46,0.24,0.87,0.52,1.22c0.36,0.46,0.91,0.71,1.54,0.71c0.13,0,0.27-0.01,0.42-0.03
				l6.82-0.84c1.24-0.18,1.99-1.06,1.99-2.31c0-0.68-0.34-1.29-0.93-1.67c-0.45-0.29-0.91-0.43-1.38-0.43h-0.08l-0.08,0.01
				l-1.65,0.22c0.08-0.85,0.15-1.69,0.21-2.52c0.1-1.39,0.15-2.79,0.15-4.16c0-2.28-0.23-4.44-0.69-6.4
				c-0.48-2.04-1.27-3.82-2.37-5.31c-1.12-1.52-2.62-2.72-4.44-3.57C213.62,70.16,211.41,69.74,208.83,69.74L208.83,69.74z
				 M209.47,92.73c-0.51,0-1.08-0.04-1.68-0.12c-0.54-0.07-1.04-0.21-1.49-0.41c-0.39-0.18-0.7-0.41-0.95-0.7
				c-0.18-0.21-0.26-0.5-0.26-0.91c0-0.51,0.15-0.88,0.5-1.21c0.47-0.45,1.06-0.82,1.76-1.1c0.75-0.3,1.55-0.52,2.37-0.64
				c0.85-0.13,1.58-0.2,2.16-0.2c0.77,0,1.57,0.04,2.37,0.12c0.44,0.04,0.88,0.11,1.31,0.2l-0.06,3.37
				c-0.73,0.56-1.55,0.94-2.48,1.16C211.84,92.58,210.64,92.73,209.47,92.73L209.47,92.73z"/>
		</g>
	</g>
	<g>
		<polygon class="st1" points="179.53,121.2 169.63,120.08 179.53,119 174.22,113.1 180.21,118.56 181.24,113.39 182.21,118.56 
			188.21,113.1 182.85,119 192.8,120.08 182.85,121.2 188.21,127.1 182.21,121.59 181.24,126.76 180.21,121.59 174.22,127.1 		"/>
	</g>
	<g>
		<polygon class="st1" points="202.13,42.58 203.21,52.48 204.33,42.58 210.23,47.9 204.72,41.9 209.89,40.87 204.72,39.9 
			210.23,33.9 204.33,39.27 203.21,29.32 202.13,39.27 196.23,33.9 201.69,39.9 196.52,40.87 201.69,41.9 196.23,47.9 		"/>
	</g>
</g>
</svg>
